<svg viewBox="206.25 213.125 137.5000000000001 123.75000000000011" fill="none" xmlns="http://www.w3.org/2000/svg" xmlns:xlink="http://www.w3.org/1999/xlink" overflow="visible" width="137.5000000000001px" height="123.75000000000011px"><g id="Master/New Stickers/Buy Online"><g id="Blush/Stickers/Buy Online"><g id="Group 182"><g id="Group 36"><path id="Fill 1" fill-rule="evenodd" clip-rule="evenodd" d="M290.111 321.583C287.357 325.735 283.745 327.217 279.112 327.18C263.847 327.046 248.576 327.109 233.309 327.142C229.929 327.151 227.183 325.902 224.949 323.42C224.496 322.915 224.08 322.372 223.506 321.677C223.248 324.403 224.078 326.526 225.663 328.384C227.853 330.954 230.642 332.042 234.022 332.023C246.219 331.963 258.416 332 270.611 331.998C274.045 331.996 277.477 331.971 280.912 331.977C285.463 331.984 290.723 327.209 290.111 321.583V321.583ZM223.581 227.654H290.113C290.143 227.216 290.22 226.936 290.172 226.677C289.302 221.871 285.207 218.109 279.903 218.107C275.743 218.105 271.583 218.109 267.421 218.111C256.205 218.115 244.99 218.082 233.775 218.138C228.279 218.168 223.739 221.95 223.581 227.654V227.654ZM223.474 309.664C223.474 312.292 223.298 314.821 223.512 317.315C223.924 322.134 228.154 325.938 232.988 325.948C248.794 325.982 264.6 325.984 280.406 325.971C284.893 325.967 288.304 323.407 289.7 319.107C290.702 316.023 290.059 312.881 290.24 309.664H223.474ZM223.578 229.03V307.939H290.007C290.484 304.223 290.353 230.978 289.876 229.03H223.578ZM222.135 275.002C222.135 259.569 222.16 244.135 222.125 228.7C222.11 222.31 226.299 218.299 230.68 217.259C231.757 217.005 232.824 216.973 233.904 216.973C249.189 216.967 264.475 216.955 279.761 216.975C286.569 216.982 291.097 221.307 291.557 228.17C291.594 228.713 291.559 229.257 291.559 229.804C291.557 259.947 291.553 290.087 291.565 320.232C291.567 323.673 291.012 326.879 288.572 329.539C286.141 332.188 283.091 333.276 279.609 333.28C264.413 333.297 249.217 333.291 234.02 333.284C226.393 333.282 222.037 327.577 222.093 321.034C222.226 305.691 222.135 290.346 222.135 275.002V275.002Z" fill="#AB97FF"/><path id="Fill 3" fill-rule="evenodd" clip-rule="evenodd" d="M256.782 322.168C259.677 322.18 261.976 319.978 261.974 317.193C261.974 314.506 259.75 312.293 257.019 312.255C254.086 312.214 251.757 314.335 251.692 317.101C251.626 319.905 253.884 322.153 256.782 322.168M223.475 309.665H290.239C290.06 312.882 290.702 316.024 289.7 319.107C288.304 323.408 284.893 325.965 280.406 325.97C264.601 325.984 248.795 325.982 232.989 325.949C228.155 325.938 223.924 322.132 223.512 317.316C223.298 314.819 223.475 312.293 223.475 309.665" fill="#855EFD"/><path id="Fill 5" fill-rule="evenodd" clip-rule="evenodd" d="M223.581 227.654C223.739 221.952 228.28 218.167 233.773 218.138C244.988 218.081 256.206 218.117 267.421 218.113C271.583 218.111 275.743 218.104 279.903 218.106C285.207 218.111 289.303 221.871 290.172 226.677C290.22 226.935 290.143 227.215 290.114 227.654H223.581Z" fill="#855EFD"/><path id="Fill 7" fill-rule="evenodd" clip-rule="evenodd" d="M290.112 321.583C290.724 327.209 285.463 331.984 280.912 331.977C277.478 331.971 274.046 331.996 270.612 331.998C258.417 332 246.22 331.963 234.023 332.023C230.643 332.042 227.854 330.954 225.663 328.384C224.078 326.526 223.248 324.403 223.506 321.676C224.08 322.372 224.496 322.914 224.95 323.42C227.184 325.902 229.929 327.15 233.309 327.142C248.577 327.109 263.848 327.046 279.113 327.18C283.745 327.217 287.358 325.735 290.112 321.583" fill="#FCD700"/><path id="Fill 9" fill-rule="evenodd" clip-rule="evenodd" d="M216.787 225.449C216.572 224.783 216.393 224.05 216.106 223.363C215.824 222.683 215.9 221.8 215.037 221.263C214.499 222.706 213.995 224.061 213.5 225.386C212.743 225.998 211.703 226.084 211 226.837C211.774 227.581 212.826 227.695 213.515 228.376C213.752 229.109 213.931 229.842 214.23 230.524C214.507 231.157 214.378 232.013 215.231 232.539C215.769 231.08 216.271 229.729 216.766 228.389C217.573 227.729 218.59 227.698 219.272 226.946C218.53 226.209 217.556 226.057 216.787 225.449" fill="#FCD700"/><path id="Fill 11" fill-rule="evenodd" clip-rule="evenodd" d="M257.533 219.176C256.899 220.117 256.758 221.142 256.362 221.946C255.869 222.537 255.033 222.41 254.68 223.03C254.705 223.103 254.711 223.153 254.736 223.184C255.144 223.679 255.83 223.719 256.277 224.147C256.791 225.017 256.706 226.163 257.596 227.09C258.031 225.973 258.405 225.011 258.734 224.165C259.341 223.763 259.982 223.675 260.418 223.17C259.971 222.55 259.233 222.502 258.765 222.08C258.23 221.193 258.318 220.044 257.533 219.176Z" fill="#FCD700"/><path id="Fill 13" fill-rule="evenodd" clip-rule="evenodd" d="M302.532 251.939C302.439 251.267 302.351 250.799 302.314 250.327C302.189 248.759 302.888 247.599 304.327 246.912C305.484 246.358 306.717 246.292 307.963 246.296C308.494 246.298 309.03 246.34 309.552 246.273C311.025 246.085 311.786 244.905 311.389 243.461C311.198 242.768 310.815 242.164 310.428 241.567C309.929 240.793 310.054 240.607 310.345 240.296C310.694 239.924 311.27 239.974 311.761 240.477C312.87 241.603 313.71 242.907 313.542 244.561C313.292 247.012 311.418 248.596 308.91 248.513C307.897 248.482 306.898 248.49 305.912 248.709C304.731 248.972 304.45 249.379 304.583 250.594C304.648 251.183 304.789 251.761 304.872 252.348C305.014 253.371 304.943 254.377 304.444 255.292C303.691 256.676 302.482 257.332 300.927 257.225C299.853 257.154 298.799 257.19 297.748 257.382C296.525 257.609 296.259 257.985 296.55 259.233C296.738 260.037 297.022 260.822 297.307 261.601C297.482 262.077 297.474 262.522 297.272 262.977C297.056 263.463 296.523 263.622 296.103 263.323C295.758 263.079 295.456 262.783 295.294 262.396C294.841 261.302 294.356 260.21 294.229 259.018C294.019 257.02 294.961 255.722 296.896 255.24C297.938 254.981 298.994 254.926 300.057 254.924C300.234 254.924 300.409 254.968 300.586 254.974C302.401 255.041 302.905 254.469 302.655 252.613C302.616 252.321 302.549 252.031 302.532 251.939" fill="#FFCF00"/><path id="Fill 15" fill-rule="evenodd" clip-rule="evenodd" d="M217.24 237.199C217.24 237.932 217.831 238.523 218.557 238.523C219.285 238.523 219.876 237.932 219.876 237.199C219.876 236.468 219.285 235.877 218.557 235.877C217.831 235.877 217.24 236.468 217.24 237.199" fill="#FC08B2"/><path id="Fill 17" fill-rule="evenodd" clip-rule="evenodd" d="M310.84 262.755C310.84 263.761 311.653 264.58 312.658 264.58C313.662 264.58 314.476 263.761 314.476 262.755C314.476 261.746 313.662 260.93 312.658 260.93C311.653 260.93 310.84 261.746 310.84 262.755" fill="#FC08B2"/><path id="Fill 19" fill-rule="evenodd" clip-rule="evenodd" d="M299.239 317.073C298.763 317.029 298.353 317.008 298.064 316.864C297.777 316.72 297.869 316.29 298.162 316.271C298.64 316.242 299.389 316.465 299.449 316.355C299.506 316.246 299.364 316.161 299.293 316.079C298.902 315.618 298.626 315.367 298.422 315.019C298.27 314.753 298.667 314.461 298.884 314.616C299.092 314.768 299.25 315 300.119 315.969C300.406 316.29 300.452 315.816 300.604 315.275C300.687 314.964 300.918 314.603 301.207 314.735C301.446 314.845 301.382 315.094 301.319 315.348C300.986 316.697 300.822 316.545 302.343 315.812C302.621 315.678 302.977 315.536 303.098 315.833C303.222 316.146 302.844 316.284 302.237 316.614C302.153 316.66 302.056 316.68 301.977 316.731C301.802 316.843 301.588 316.889 301.444 317.052C301.583 317.269 301.839 317.223 302.037 317.315C302.349 317.463 302.646 317.399 302.829 317.72C302.898 317.843 302.848 318.004 302.715 318.052C302.068 318.273 301.265 317.572 301.448 318.194C301.725 319.148 301.985 319.726 301.598 319.835C301.303 319.918 301.186 319.587 301.074 319.269C300.575 317.854 300.718 317.714 300.248 319.34C300.048 320.033 299.368 319.935 299.63 318.977C300.011 317.58 300.017 317.724 298.796 318.526C298.717 318.58 298.64 318.641 298.555 318.683C298.216 318.843 297.871 318.369 298.21 318.129C299.383 317.296 299.801 317.186 299.239 317.083C299.239 317.079 299.239 317.075 299.239 317.073" fill="#FFCF00"/></g><g id="Group 171"><g id="Group 162"><g id="Group 156"><path id="Fill 38" fill-rule="evenodd" clip-rule="evenodd" d="M277.798 272.486C277.798 283.8 268.44 292.971 256.899 292.971C245.357 292.971 236 283.8 236 272.486C236 261.172 245.357 252 256.899 252C268.44 252 277.798 261.172 277.798 272.486" fill="#FCD700"/><path id="Path" d="M264.546 262.481L270.021 266.874L256.349 282.49L243.776 273.156L248.154 267.752L255.292 273.051L264.546 262.481Z" fill="#EFF2F9"/></g></g></g><g id="Group 177"><g id="Group 174"><path id="Fill 21" fill-rule="evenodd" clip-rule="evenodd" d="M326.671 317.166C326.664 317.166 326.657 317.165 326.652 317.163L272.138 303.805C269.666 303.227 266.793 301.008 267.372 298.529L274.524 267.97C274.804 266.774 275.536 265.758 276.584 265.105C277.632 264.455 278.897 264.199 280.062 264.531L335.905 277.621C338.38 278.202 339.92 280.688 339.34 283.162L332.189 313.724C331.61 316.192 329.137 317.734 326.671 317.166" fill="white"/><path id="Fill 23" fill-rule="evenodd" clip-rule="evenodd" d="M336.507 291.68L273.28 276.857L274.626 271.106L337.852 285.927L336.507 291.68Z" fill="#855EFD"/><path id="Fill 28" fill-rule="evenodd" clip-rule="evenodd" d="M330.618 299.8H330.623C330.85 299.852 331.085 299.815 331.285 299.692C331.483 299.565 331.624 299.37 331.676 299.14L332.3 296.481C332.354 296.251 332.316 296.014 332.191 295.814C332.065 295.614 331.872 295.475 331.643 295.419L318.407 292.316C318.407 292.316 318.406 292.316 318.404 292.314C317.933 292.208 317.46 292.502 317.349 292.975L316.727 295.635C316.615 296.11 316.911 296.583 317.384 296.696L330.618 299.8ZM330.532 300.194C330.529 300.194 330.527 300.194 330.525 300.193L317.29 297.088C316.602 296.929 316.172 296.234 316.334 295.543L316.956 292.881C317.116 292.194 317.806 291.765 318.494 291.923C318.496 291.923 318.498 291.923 318.501 291.925L331.735 295.026C332.069 295.105 332.352 295.308 332.535 295.6C332.714 295.893 332.771 296.237 332.693 296.575L332.071 299.234C331.909 299.921 331.221 300.351 330.532 300.194V300.194Z" fill="#AB97FF"/><path id="Fill 30" fill-rule="evenodd" clip-rule="evenodd" d="M275.454 282.246C275.024 282.147 274.592 282.415 274.493 282.846L273.832 285.663C273.783 285.871 273.818 286.087 273.931 286.27C274.044 286.449 274.221 286.576 274.428 286.625L310.626 295.112H310.629C311.057 295.209 311.488 294.941 311.589 294.512L312.248 291.695C312.298 291.487 312.261 291.271 312.148 291.09C312.035 290.907 311.858 290.78 311.651 290.732L275.454 282.246ZM310.539 295.505C310.537 295.505 310.536 295.503 310.534 295.503L274.336 287.018C274.025 286.945 273.759 286.755 273.589 286.482C273.418 286.207 273.366 285.884 273.439 285.569L274.1 282.752C274.251 282.107 274.898 281.703 275.544 281.851H275.546L311.743 290.337C312.058 290.41 312.322 290.603 312.493 290.876C312.661 291.151 312.713 291.474 312.642 291.788L311.982 294.604C311.829 295.251 311.184 295.653 310.539 295.505V295.505Z" fill="#AB97FF"/><path id="Fill 32" fill-rule="evenodd" clip-rule="evenodd" d="M294.266 301.891L271.156 296.42L271.25 296.027L294.36 301.498L294.266 301.891Z" fill="#AB97FF"/><path id="Fill 34" fill-rule="evenodd" clip-rule="evenodd" d="M309.456 300.969L272.139 292.133L272.233 291.74L309.549 300.574L309.456 300.969Z" fill="#AB97FF"/><g id="Group 27"><mask id="mask032f91e8b-12be-4d36-ba1f-2d0bd651c757" mask-type="alpha" maskUnits="userSpaceOnUse" x="267" y="264" width="73" height="54"><path id="Clip 26" fill-rule="evenodd" clip-rule="evenodd" d="M267.25 264.374H339.463V317.273H267.25V264.374Z" fill="white"/></mask><g mask="url(#mask032f91e8b-12be-4d36-ba1f-2d0bd651c757)"><path id="Fill 25" fill-rule="evenodd" clip-rule="evenodd" d="M326.921 316.006C326.926 316.006 326.929 316.008 326.934 316.01C328.772 316.431 330.614 315.282 331.045 313.444L338.196 282.883C338.628 281.04 337.48 279.187 335.637 278.755L279.794 265.665C279.789 265.665 279.783 265.664 279.776 265.662C278.895 265.458 277.979 265.611 277.204 266.095C276.422 266.58 275.878 267.335 275.669 268.226L268.517 298.786C268.086 300.63 269.235 302.483 271.076 302.914L326.921 316.006ZM326.67 317.156C326.665 317.154 326.658 317.152 326.653 317.151L270.808 304.061C268.335 303.481 266.793 300.996 267.372 298.517L274.524 267.958C274.806 266.761 275.536 265.745 276.584 265.093C277.633 264.442 278.897 264.187 280.063 264.519L335.907 277.609C338.382 278.19 339.92 280.676 339.341 283.151L332.189 313.713C331.61 316.184 329.137 317.721 326.67 317.156V317.156Z" fill="#AB97FF"/></g></g></g></g></g></g></g></svg>