<svg xmlns="http://www.w3.org/2000/svg" version="1.1" xmlns:xlink="http://www.w3.org/1999/xlink" xmlns:svgjs="http://svgjs.dev/svgjs" width="1440" height="650" preserveAspectRatio="none" viewBox="0 0 1440 650"><g mask="url(&quot;#SvgjsMask2566&quot;)" fill="none"><path d="M698.49 427.89 L803.46 484.09000000000003L834.3939051703802 372.57109482961977z" fill="rgba(255, 197, 90, 1)"></path><path d="M1154.63 494.52a5.6 5.6 0 1 0 5.64 9.68 5.6 5.6 0 1 0-5.64-9.68zM1162.69 508.35a5.6 5.6 0 1 0 5.64 9.67 5.6 5.6 0 1 0-5.64-9.67zM1170.74 522.17a5.6 5.6 0 1 0 5.64 9.68 5.6 5.6 0 1 0-5.64-9.68zM1178.8 535.99a5.6 5.6 0 1 0 5.64 9.68 5.6 5.6 0 1 0-5.64-9.68zM1124.7 474.93a5.6 5.6 0 1 0 5.64 9.68 5.6 5.6 0 1 0-5.64-9.68zM1132.75 488.75a5.6 5.6 0 1 0 5.64 9.68 5.6 5.6 0 1 0-5.64-9.68zM1140.81 502.58a5.6 5.6 0 1 0 5.64 9.67 5.6 5.6 0 1 0-5.64-9.67zM1148.86 516.4a5.6 5.6 0 1 0 5.64 9.68 5.6 5.6 0 1 0-5.64-9.68zM1094.76 455.34a5.6 5.6 0 1 0 5.64 9.67 5.6 5.6 0 1 0-5.64-9.67zM1102.82 469.16a5.6 5.6 0 1 0 5.64 9.68 5.6 5.6 0 1 0-5.64-9.68zM1110.87 482.99a5.6 5.6 0 1 0 5.64 9.67 5.6 5.6 0 1 0-5.64-9.67zM1118.93 496.81a5.6 5.6 0 1 0 5.64 9.68 5.6 5.6 0 1 0-5.64-9.68z" fill="rgba(255, 197, 90, 1)"></path><rect width="72" height="72" clip-path="url(&quot;#SvgjsClipPath2567&quot;)" x="1128.73" y="34.74" fill="url(&quot;#SvgjsPattern2568&quot;)" transform="rotate(202.52, 1164.73, 70.74)"></rect><path d="M314.17 529.72 L383.69 383.86L250.0542360613128 357.9142360613128z" stroke="rgba(252, 65, 0, 1)" stroke-width="2.06" stroke-dasharray="3, 2"></path><path d="M1004.21 150.21a5.6 5.6 0 1 0 8.22-7.61 5.6 5.6 0 1 0-8.22 7.61zM1015.95 139.34a5.6 5.6 0 1 0 8.22-7.61 5.6 5.6 0 1 0-8.22 7.61zM1027.69 128.46a5.6 5.6 0 1 0 8.22-7.6 5.6 5.6 0 1 0-8.22 7.6zM1039.43 117.59a5.6 5.6 0 1 0 8.22-7.61 5.6 5.6 0 1 0-8.22 7.61z" stroke="rgba(252, 65, 0, 1)" stroke-width="1" stroke-dasharray="4, 4"></path><rect width="288" height="288" clip-path="url(&quot;#SvgjsClipPath2569&quot;)" x="1086.64" y="80.12" fill="url(&quot;#SvgjsPattern2570&quot;)" transform="rotate(323.92, 1230.64, 224.12)"></rect><rect width="108.96000000000001" height="108.96000000000001" clip-path="url(&quot;#SvgjsClipPath2571&quot;)" x="24.85" y="243.83" fill="url(&quot;#SvgjsPattern2572&quot;)" transform="rotate(299.59, 79.33, 298.31)"></rect><rect width="348" height="348" clip-path="url(&quot;#SvgjsClipPath2573&quot;)" x="225.29" y="-121.76" fill="url(&quot;#SvgjsPattern2574&quot;)" transform="rotate(344.98, 399.29, 52.24)"></rect><path d="M521.45 163.21L531.48 155.24 541.45 163.27 551.48 155.3 561.45 163.33 571.48 155.36 581.45 163.39M521.43 171.21L531.45 163.24 541.43 171.27 551.45 163.3 561.43 171.33 571.45 163.36 581.43 171.39" stroke="rgba(255, 197, 90, 1)" stroke-width="1" stroke-dasharray="3, 2"></path><path d="M407.35 395.02a5.6 5.6 0 1 0-10.65 3.47 5.6 5.6 0 1 0 10.65-3.47zM392.14 399.98a5.6 5.6 0 1 0-10.65 3.47 5.6 5.6 0 1 0 10.65-3.47zM376.93 404.94a5.6 5.6 0 1 0-10.65 3.47 5.6 5.6 0 1 0 10.65-3.47zM361.72 409.9a5.6 5.6 0 1 0-10.65 3.47 5.6 5.6 0 1 0 10.65-3.47zM432.82 369.89a5.6 5.6 0 1 0-10.65 3.47 5.6 5.6 0 1 0 10.65-3.47zM417.6 374.85a5.6 5.6 0 1 0-10.64 3.47 5.6 5.6 0 1 0 10.64-3.47zM402.39 379.81a5.6 5.6 0 1 0-10.65 3.47 5.6 5.6 0 1 0 10.65-3.47zM387.18 384.77a5.6 5.6 0 1 0-10.65 3.47 5.6 5.6 0 1 0 10.65-3.47z" fill="rgba(255, 197, 90, 1)"></path></g><defs><mask id="SvgjsMask2566"><rect width="1440" height="650" fill="#ffffff"></rect></mask><pattern x="0" y="0" width="6" height="6" patternUnits="userSpaceOnUse" id="SvgjsPattern2568"><path d="M0 6L3 0L6 6" stroke="rgba(255, 197, 90, 1)" fill="none"></path></pattern><clipPath id="SvgjsClipPath2567"><circle r="18" cx="1164.73" cy="70.74"></circle></clipPath><pattern x="0" y="0" width="6" height="6" patternUnits="userSpaceOnUse" id="SvgjsPattern2570"><path d="M0 6L3 0L6 6" stroke="rgba(0, 33, 94, 1)" fill="none"></path></pattern><clipPath id="SvgjsClipPath2569"><circle r="72" cx="1230.64" cy="224.12"></circle></clipPath><pattern x="0" y="0" width="9.08" height="9.08" patternUnits="userSpaceOnUse" id="SvgjsPattern2572"><path d="M0 9.08L4.54 0L9.08 9.08" stroke="rgba(252, 65, 0, 1)" fill="none"></path></pattern><clipPath id="SvgjsClipPath2571"><circle r="27.240000000000002" cx="79.33" cy="298.31"></circle></clipPath><pattern x="0" y="0" width="348" height="6" patternUnits="userSpaceOnUse" id="SvgjsPattern2574"><rect width="348" height="3" x="0" y="0" fill="rgba(252, 65, 0, 1)"></rect><rect width="348" height="3" x="0" y="3" fill="rgba(0, 0, 0, 0)"></rect></pattern><clipPath id="SvgjsClipPath2573"><circle r="87" cx="399.29" cy="52.24"></circle></clipPath></defs></svg>