<svg viewBox="-13.5 67.5 1093.5 945.0000000000002" fill="none" xmlns="http://www.w3.org/2000/svg" xmlns:xlink="http://www.w3.org/1999/xlink" overflow="visible" width="1093.5px" height="945.0000000000002px"><g id="Master/Stickers/Shopping Bags"><g id="Bags"><path id="Fill-1" fill-rule="evenodd" clip-rule="evenodd" d="M207.212 382.279C198.956 382.279 192.264 373.344 192.264 362.349C192.264 351.354 198.956 342.419 207.212 342.419C215.467 342.419 222.159 351.336 222.159 362.349C222.159 373.362 215.467 382.279 207.212 382.279Z" fill="#31767c"/><path id="Fill-3" fill-rule="evenodd" clip-rule="evenodd" d="M532.732 382.279C524.477 382.279 517.785 373.344 517.785 362.349C517.785 351.354 524.477 342.419 532.732 342.419C540.987 342.419 547.68 351.336 547.68 362.349C547.68 373.362 540.987 382.279 532.732 382.279Z" fill="#31767c"/><path id="Fill-5" fill-rule="evenodd" clip-rule="evenodd" d="M369.981 73.398C412.93 72.35 454.685 100.885 487.761 153.946C517.913 201.308 535.766 271.947 536.594 347.089C536.594 349.958 534.755 352.385 532.622 352.385C530.489 352.385 528.633 350.068 528.614 347.163C527.861 274.557 510.615 206.291 481.492 160.51C416.516 58.3768 323.374 58.3768 258.453 160.51C229.33 206.291 212.083 274.502 211.33 347.163C211.33 350.05 209.492 352.385 207.322 352.385C205.153 352.385 203.332 350.013 203.35 347.089C204.159 271.947 222.031 201.308 252.202 154.038C285.297 100.977 327.013 72.4235 369.981 73.4899" fill="#31767c"/><path id="Fill-7" fill-rule="evenodd" clip-rule="evenodd" d="M646.21 1001.18H-0.382812L59.9779 275.991H585.904L646.21 1001.18Z" fill="#3a8a92"/><path id="Fill-9" fill-rule="evenodd" clip-rule="evenodd" d="M108.682 382.279C100.427 382.279 93.7339 373.344 93.7339 362.349C93.7339 351.354 100.427 342.419 108.682 342.419C116.937 342.419 123.63 351.336 123.63 362.349C123.63 373.362 116.937 382.279 108.682 382.279Z" fill="#31767c"/><path id="Fill-11" fill-rule="evenodd" clip-rule="evenodd" d="M435.287 382.279C427.032 382.279 420.34 373.344 420.34 362.349C420.34 351.354 427.032 342.419 435.287 342.419C443.543 342.419 450.236 351.336 450.236 362.349C450.236 373.362 443.543 382.279 435.287 382.279Z" fill="#31767c"/><path id="Fill-13" fill-rule="evenodd" clip-rule="evenodd" d="M271.434 73.398C314.383 72.35 356.136 100.885 389.213 153.946C419.365 201.308 437.237 271.947 438.064 347.089C438.064 349.958 436.226 352.385 434.075 352.385C431.924 352.385 430.085 350.068 430.085 347.163C429.313 274.557 412.085 206.291 382.962 160.51C317.968 58.3768 224.844 58.3768 159.905 160.51C130.782 206.291 113.555 274.502 112.782 347.163C112.782 350.05 110.944 352.385 108.793 352.385C106.642 352.385 104.784 350.013 104.802 347.089C105.63 271.947 123.501 201.308 153.654 154.038C186.749 100.977 228.485 72.4235 271.434 73.4899" fill="#31767c"/><path id="Fill-15" fill-rule="evenodd" clip-rule="evenodd" d="M646.21 1001.18H484.893L454.666 275.991H585.886L646.21 1001.18Z" fill="#31767c"/><path id="Fill-17" fill-rule="evenodd" clip-rule="evenodd" d="M63.8391 924.368C112.764 924.368 214.602 925.508 216 925.508C345.252 927.071 381.822 929.02 392.798 930.711C393.754 880.886 400.483 531.058 401.421 482.704L88.4759 487.705C83.8427 548.507 48.6889 874.745 43.3202 924.497C47.7879 924.497 54.9403 924.368 63.8391 924.368V924.368ZM399.012 946.909L394.453 941.559C377.262 935.951 42.6215 934.793 39.6062 934.977L39.4958 930.141L36.1499 929.663V928.468C37.9885 912.215 79.2459 529.827 82.206 481.895L82.5005 477.151L408.077 471.93L407.966 477.445C407.065 524.44 399.142 936.613 399.142 936.907L399.012 946.909Z" fill="#31767c"/><path id="Fill-21" fill-rule="evenodd" clip-rule="evenodd" d="M570.92 502.946C561.727 502.946 554.372 496.511 554.372 488.568C554.372 480.625 561.727 474.172 570.92 474.172C580.112 474.172 587.467 480.607 587.467 488.568C587.467 496.529 580.021 502.946 570.92 502.946Z" fill="#419ca5"/><path id="Fill-23" fill-rule="evenodd" clip-rule="evenodd" d="M928.543 502.946C919.35 502.946 911.996 496.511 911.996 488.568C911.996 480.625 919.35 474.172 928.543 474.172C937.736 474.172 945.09 480.607 945.09 488.568C945.09 496.529 937.736 502.946 928.543 502.946Z" fill="#419ca5"/><path id="Fill-25" fill-rule="evenodd" clip-rule="evenodd" d="M749.722 275.991C798.499 275.991 845.236 297.374 879.25 335.451C913.577 373.491 932.863 424.678 932.973 477.996C932.835 479.064 932.313 480.045 931.504 480.755C930.696 481.466 929.656 481.858 928.58 481.858C927.503 481.858 926.463 481.466 925.655 480.755C924.846 480.045 924.324 479.064 924.185 477.996C924.185 426.516 905.523 377.003 872.374 340.213C806.736 266.468 698.628 264.611 630.894 336.076C629.607 337.437 628.339 338.816 627.089 340.213C593.994 376.985 575.351 426.461 575.277 477.996C575.139 479.064 574.616 480.045 573.808 480.755C572.999 481.466 571.959 481.858 570.883 481.858C569.806 481.858 568.767 481.466 567.958 480.755C567.149 480.045 566.628 479.064 566.489 477.996C566.6 424.678 585.886 373.491 620.212 335.451C654.226 297.374 700.944 275.918 749.722 275.991" fill="#419ca5"/><path id="Fill-27" fill-rule="evenodd" clip-rule="evenodd" d="M1078 1004.51H322.914L409.529 438.744H991.385L1078 1004.51Z" fill="#4fbfca"/><path id="Fill-29" fill-rule="evenodd" clip-rule="evenodd" d="M1078 1004.51H889.785L911.425 438.744H991.496L1078 1004.51Z" fill="#419ca5"/><path id="Fill-31" fill-rule="evenodd" clip-rule="evenodd" d="M490.096 502.946C480.903 502.946 473.548 496.511 473.548 488.568C473.548 480.625 480.903 474.172 490.096 474.172C499.288 474.172 506.643 480.607 506.643 488.568C506.643 496.529 499.197 502.946 490.096 502.946Z" fill="#419ca5"/><path id="Fill-33" fill-rule="evenodd" clip-rule="evenodd" d="M847.719 502.946C838.526 502.946 831.171 496.511 831.171 488.568C831.171 480.625 838.526 474.172 847.719 474.172C856.912 474.172 864.266 480.607 864.266 488.568C864.266 496.529 856.912 502.946 847.719 502.946Z" fill="#419ca5"/><path id="Fill-35" fill-rule="evenodd" clip-rule="evenodd" d="M668.898 275.991C717.675 275.991 764.413 297.374 798.426 335.451C832.753 373.491 852.039 424.678 852.149 477.996C852.011 479.064 851.489 480.045 850.68 480.755C849.872 481.466 848.832 481.858 847.756 481.858C846.679 481.858 845.639 481.466 844.831 480.755C844.022 480.045 843.5 479.064 843.361 477.996C843.361 426.516 824.718 377.003 791.55 340.213C725.912 266.468 617.804 264.611 550.07 336.076C548.845 337.437 547.576 338.816 546.265 340.213C513.17 376.985 494.527 426.461 494.453 477.996C494.315 479.064 493.792 480.045 492.984 480.755C492.175 481.466 491.135 481.858 490.059 481.858C488.982 481.858 487.943 481.466 487.134 480.755C486.325 480.045 485.804 479.064 485.665 477.996C485.776 424.678 505.062 373.491 539.388 335.451C573.402 297.374 620.12 275.918 668.898 275.991" fill="#419ca5"/><path id="Fill-37" fill-rule="evenodd" clip-rule="evenodd" d="M889.491 1005.61C889.024 1005.62 888.566 1005.48 888.186 1005.21C888.015 1005.1 887.875 1004.94 887.778 1004.76C887.681 1004.58 887.63 1004.38 887.63 1004.18C887.63 1003.98 887.681 1003.77 887.778 1003.59C887.875 1003.41 888.015 1003.26 888.186 1003.15L960.074 944.812L935.236 446.813C935.236 446.023 936.026 445.342 937.074 445.306C938.122 445.269 939.023 445.912 939.078 446.703L963.972 945.235C963.977 945.438 963.932 945.639 963.842 945.821C963.753 946.004 963.621 946.162 963.457 946.283L890.907 1005.12C890.496 1005.42 890 1005.58 889.491 1005.58" fill="#4fbfca"/><g id="Group-41"><path id="Fill-39" fill-rule="evenodd" clip-rule="evenodd" d="M1078.11 1005.32C1077.74 1005.33 1077.38 1005.24 1077.04 1005.08L961.581 946.247C961.388 946.178 961.214 946.062 961.075 945.91C960.936 945.759 960.836 945.575 960.783 945.376C960.731 945.177 960.727 944.968 960.773 944.768C960.82 944.567 960.914 944.381 961.048 944.225C961.398 943.892 961.841 943.675 962.318 943.603C962.794 943.53 963.282 943.606 963.715 943.82L1079.16 1002.65C1079.35 1002.72 1079.53 1002.84 1079.67 1002.99C1079.81 1003.14 1079.91 1003.33 1079.96 1003.53C1080.01 1003.72 1080.01 1003.93 1079.97 1004.13C1079.92 1004.34 1079.83 1004.52 1079.69 1004.68C1079.49 1004.89 1079.24 1005.05 1078.97 1005.17C1078.7 1005.28 1078.41 1005.33 1078.11 1005.32" fill="#4fbfca"/></g><path id="Fill-42" fill-rule="evenodd" clip-rule="evenodd" d="M378.439 963.199C427.97 963.199 541.558 963.806 601.919 964.302C784.049 965.773 834.223 967.667 848.858 969.248C849.98 930.472 859.89 580.663 860.993 544.259L423.411 548.985C417.729 602.083 365.826 926.207 359.888 963.254C364.061 963.254 370.405 963.254 378.458 963.254L378.439 963.199ZM852.591 975.72C851.885 975.72 851.188 975.563 850.551 975.26C829.866 970.222 364.062 968.935 355.972 969.045H355.365C354.495 969.12 353.628 968.859 352.945 968.315C352.261 967.772 351.811 966.987 351.688 966.122C351.672 965.902 351.672 965.681 351.688 965.46C354.152 950.2 411.791 590.959 415.909 545.877C416.108 545.05 416.6 544.321 417.291 543.825C417.983 543.329 418.831 543.098 419.679 543.175L864.763 538.358C865.755 538.35 866.725 538.652 867.539 539.222C867.882 539.462 868.163 539.781 868.358 540.152C868.553 540.523 868.656 540.935 868.66 541.354C867.41 585.48 856.36 972.594 856.342 972.87C856.258 973.511 855.975 974.109 855.533 974.581C855.091 975.052 854.513 975.374 853.878 975.499C853.431 975.632 852.966 975.7 852.5 975.701L852.591 975.72Z" fill="#419ca5"/><path id="Fill-46" fill-rule="evenodd" clip-rule="evenodd" d="M256.485 738.781C251.595 738.781 247.624 735.307 247.624 731.023C247.624 726.739 251.595 723.282 256.485 723.282C261.376 723.282 265.348 726.757 265.348 731.023C265.348 735.288 261.376 738.781 256.485 738.781Z" fill="#53c1cc"/><path id="Fill-48" fill-rule="evenodd" clip-rule="evenodd" d="M444.701 738.781C442.501 738.918 440.337 738.178 438.68 736.725C437.023 735.271 436.009 733.222 435.857 731.023C435.857 726.757 439.81 723.282 444.701 723.282C449.592 723.282 453.563 726.757 453.563 731.023C453.563 735.288 449.592 738.781 444.701 738.781Z" fill="#53c1cc"/><path id="Fill-50" fill-rule="evenodd" clip-rule="evenodd" d="M350.584 618.097C376.232 618.097 400.795 629.478 418.611 649.757C436.94 670.773 446.98 697.75 446.852 725.636C446.8 726.212 446.535 726.748 446.108 727.139C445.681 727.529 445.123 727.746 444.544 727.746C443.966 727.746 443.408 727.529 442.981 727.139C442.554 726.748 442.289 726.212 442.237 725.636C442.381 698.687 432.693 672.612 414.989 652.294C380.497 613.041 323.648 612.048 288.127 650.088C287.446 650.805 286.785 651.541 286.123 652.294C268.424 672.613 258.743 698.69 258.893 725.636C258.877 725.923 258.804 726.204 258.679 726.464C258.553 726.723 258.378 726.955 258.163 727.146C257.947 727.337 257.697 727.484 257.425 727.578C257.153 727.673 256.865 727.712 256.577 727.695C256.29 727.715 256.002 727.677 255.73 727.583C255.458 727.49 255.207 727.343 254.993 727.151C254.778 726.959 254.604 726.726 254.482 726.466C254.359 726.205 254.291 725.923 254.279 725.636C254.142 697.748 264.183 670.769 282.519 649.757C300.39 629.533 324.954 618.06 350.547 618.097" fill="#53c1cc"/><path id="Fill-52" fill-rule="evenodd" clip-rule="evenodd" d="M523.301 1005.61H125.836L171.433 704.473H477.722L523.301 1005.61Z" fill="#eff9fa"/><path id="Fill-54" fill-rule="evenodd" clip-rule="evenodd" d="M523.301 1005.61H423.668L435.122 704.473H477.502L523.301 1005.61Z" fill="#53c1cc"/><path id="Fill-56" fill-rule="evenodd" clip-rule="evenodd" d="M214.419 738.781C209.528 738.781 205.557 735.307 205.557 731.023C205.557 726.739 209.528 723.282 214.419 723.282C219.309 723.282 223.28 726.757 223.28 731.023C223.28 735.288 219.309 738.781 214.419 738.781Z" fill="#53c1cc"/><path id="Fill-58" fill-rule="evenodd" clip-rule="evenodd" d="M402.635 738.781C397.744 738.781 393.773 735.307 393.773 731.023C393.773 726.739 397.744 723.282 402.635 723.282C407.525 723.282 411.496 726.757 411.496 731.023C411.496 735.288 407.525 738.781 402.635 738.781Z" fill="#53c1cc"/><path id="Fill-60" fill-rule="evenodd" clip-rule="evenodd" d="M308.518 618.097C334.166 618.097 358.73 629.478 376.546 649.757C394.89 670.767 404.943 697.745 404.823 725.636C404.811 725.923 404.742 726.205 404.619 726.466C404.496 726.726 404.323 726.959 404.109 727.151C403.895 727.343 403.644 727.49 403.372 727.583C403.1 727.677 402.812 727.715 402.525 727.695C402.237 727.712 401.949 727.673 401.677 727.578C401.405 727.484 401.154 727.337 400.939 727.146C400.724 726.955 400.548 726.723 400.423 726.464C400.298 726.204 400.225 725.923 400.208 725.636C400.367 698.688 390.685 672.609 372.979 652.294C338.469 613.041 281.638 612.048 246.117 650.088C245.455 650.805 244.774 651.541 244.131 652.294C226.427 672.612 216.739 698.687 216.882 725.636C216.831 726.212 216.566 726.748 216.139 727.139C215.712 727.529 215.154 727.746 214.575 727.746C213.997 727.746 213.439 727.529 213.012 727.139C212.585 726.748 212.32 726.212 212.268 725.636C212.139 697.75 222.179 670.773 240.508 649.757C258.379 629.533 282.943 618.06 308.536 618.097" fill="#53c1cc"/><g id="Group-64"><path id="Fill-62" fill-rule="evenodd" clip-rule="evenodd" d="M424.569 1005.61C424.328 1005.62 424.091 1005.55 423.889 1005.41C423.801 1005.35 423.73 1005.27 423.681 1005.17C423.632 1005.07 423.607 1004.97 423.607 1004.86C423.607 1004.75 423.632 1004.65 423.681 1004.55C423.73 1004.46 423.801 1004.37 423.889 1004.31L461.396 973.329L448.434 708.941C448.462 708.707 448.578 708.492 448.759 708.342C448.94 708.191 449.173 708.116 449.408 708.132C449.978 708.132 450.419 708.444 450.438 708.886L463.399 973.642C463.405 973.75 463.385 973.859 463.34 973.958C463.295 974.057 463.228 974.144 463.143 974.212L425.359 1005.47C425.15 1005.63 424.891 1005.72 424.624 1005.72" fill="#eff9fa"/></g><g id="Group-67"><path id="Fill-65" fill-rule="evenodd" clip-rule="evenodd" d="M523.668 1005.61C523.472 1005.61 523.278 1005.57 523.098 1005.49L462.186 973.881C462.083 973.843 461.99 973.78 461.917 973.698C461.843 973.616 461.79 973.518 461.763 973.411C461.736 973.304 461.735 973.193 461.761 973.086C461.786 972.979 461.837 972.879 461.91 972.796C462.089 972.616 462.321 972.497 462.572 972.457C462.823 972.417 463.081 972.459 463.307 972.576L524.219 1004.18C524.323 1004.22 524.415 1004.28 524.489 1004.36C524.562 1004.45 524.615 1004.54 524.642 1004.65C524.669 1004.76 524.67 1004.87 524.644 1004.98C524.619 1005.08 524.567 1005.18 524.495 1005.27C524.39 1005.38 524.263 1005.47 524.12 1005.53C523.977 1005.59 523.823 1005.62 523.668 1005.61" fill="#eff9fa"/></g><path id="Fill-68" fill-rule="evenodd" clip-rule="evenodd" d="M155.418 983.459C181.508 983.459 241.354 983.772 273.088 984.047C369.025 984.82 395.464 985.886 403.167 986.677C403.756 966.048 409.014 780.075 409.566 760.733L179.044 763.234C176.066 791.474 148.707 963.786 145.582 983.477L155.418 983.459ZM405.19 990.115C404.816 990.11 404.446 990.029 404.105 989.876C393.22 987.191 147.843 986.511 143.559 986.566H143.247C142.806 986.572 142.378 986.419 142.04 986.136C141.703 985.852 141.479 985.457 141.408 985.022C141.395 984.906 141.395 984.789 141.408 984.672C142.695 976.546 173.051 785.554 175.22 761.597C175.317 761.153 175.576 760.76 175.946 760.495C176.317 760.23 176.771 760.112 177.224 760.163L411.662 757.534C412.184 757.516 412.696 757.678 413.114 757.994C413.295 758.119 413.444 758.286 413.546 758.482C413.649 758.677 413.703 758.895 413.702 759.115C413.041 782.576 407.23 988.386 407.212 988.534C407.172 988.872 407.026 989.19 406.795 989.441C406.564 989.692 406.26 989.863 405.925 989.931C405.687 990.005 405.439 990.042 405.19 990.041V990.115Z" fill="#53c1cc"/></g></g></svg>