<svg viewBox="89.53488372093028 87 244.1860465116279 237.79999999999995" fill="none" xmlns="http://www.w3.org/2000/svg" xmlns:xlink="http://www.w3.org/1999/xlink" overflow="visible" width="244.1860465116279px" height="237.79999999999995px"><g id="Master/Character/Torso"><g id="Head 2" transform="translate(189.79 120) scale(1 1)"><g id="Head 2/Laughing"><path id="Path 2" fill-rule="evenodd" clip-rule="evenodd" d="M16 65.8323C16 65.8323 21.5224 62.2244 20.5403 47.3243C20.5403 47.3243 29.274 51.4116 38.8022 44.5006L41 65.6603C41 65.6603 34.3939 73.164 27.4671 72.4363C20.5403 71.7086 16 65.8323 16 65.8323Z" fill="#dcad7f"/><path id="Path 2 Copy" fill-rule="evenodd" clip-rule="evenodd" d="M20.7523 46.8715C26.3989 49.514 32.2957 48.6022 38.5087 44.0959C38.8203 43.8698 39.2598 44.066 39.2996 44.449L41.4974 65.6086C41.5118 65.7474 41.4675 65.8859 41.3753 65.9907C36.8731 71.1047 32.2136 73.4377 27.4149 72.9335C22.6587 72.4339 18.7133 70.1617 15.6044 66.1381C15.426 65.9072 15.4824 65.5733 15.7266 65.4138C19.2108 63.1374 20.6854 57.1264 20.0414 47.3572C20.0164 46.9776 20.4077 46.7102 20.7523 46.8715ZM40.479 65.492L38.392 45.4L37.9797 45.6795C32.2505 49.4704 26.6918 50.3258 21.3497 48.2176L21.088 48.111L21.1011 48.3404C21.5662 57.3108 20.1823 63.143 16.8667 65.8193L16.719 65.934L16.9567 66.2216C19.711 69.4853 23.0863 71.3695 27.1017 71.89L27.5194 71.939C31.9564 72.4051 36.3189 70.2208 40.6248 65.3299L40.479 65.492Z" fill="black"/><g id="Head"><path id="Combined Shape" fill-rule="evenodd" clip-rule="evenodd" d="M27.485 48.7008C17.392 48.7008 9.20996 40.0248 9.20996 29.3208C9.20996 18.6168 17.392 9.93982 27.485 9.93982C37.578 9.93982 45.76 18.6168 45.76 29.3208C45.76 40.0248 37.578 48.7008 27.485 48.7008Z" fill="#dcad7f"/><path id="Fill 18" fill-rule="evenodd" clip-rule="evenodd" d="M27.485 10.4399C17.684 10.4399 9.70996 18.9099 9.70996 29.3209C9.70996 39.7319 17.684 48.2009 27.485 48.2009C37.286 48.2009 45.26 39.7319 45.26 29.3209C45.26 18.9099 37.286 10.4399 27.485 10.4399M27.485 49.2009C17.132 49.2009 8.70996 40.2829 8.70996 29.3209C8.70996 18.3579 17.132 9.43994 27.485 9.43994C37.838 9.43994 46.26 18.3579 46.26 29.3209C46.26 40.2829 37.838 49.2009 27.485 49.2009" fill="black"/><g id="Group 3"><path id="Fill 1" fill-rule="evenodd" clip-rule="evenodd" d="M17.6809 27.9607C17.5944 27.9392 15.5057 27.4391 13.2801 28.6121C13.0228 28.7471 12.925 29.0632 13.0619 29.3189C13.1556 29.4958 13.3388 29.5981 13.5282 29.5981C13.6106 29.5981 13.695 29.5776 13.7743 29.5357C15.6282 28.56 17.4071 28.9721 17.4256 28.9762C17.7107 29.0489 17.9938 28.876 18.0628 28.5937C18.1328 28.3145 17.9619 28.0302 17.6809 27.9607M28.7481 28.5181C26.4751 27.4391 24.4122 28.0241 24.3247 28.0496C24.0468 28.1304 23.8882 28.4199 23.9696 28.6981C24.0498 28.9742 24.3381 29.1307 24.6222 29.054C24.6387 29.0489 26.4 28.5631 28.2941 29.4631C28.3672 29.4968 28.4444 29.5142 28.5206 29.5142C28.7172 29.5142 28.9056 29.4037 28.9962 29.2166C29.1218 28.9558 29.0106 28.6418 28.7481 28.5181M25.8863 37.5866C25.734 37.559 25.5806 37.604 25.4632 37.7001C22.8763 39.8519 19.5091 38.9049 19.4762 38.8967C19.2909 38.8425 19.0901 38.8926 18.9543 39.0307C18.8173 39.1677 18.7669 39.3661 18.8235 39.5512C19.3681 41.342 21.1747 44.3877 24.3422 44.3877C24.7056 44.3877 25.0854 44.3468 25.4838 44.2609C26.6326 44.0124 27.1309 43.3609 27.345 42.8587C28.1479 40.981 26.4473 38.146 26.2497 37.8279C26.1704 37.6981 26.0366 37.6101 25.8863 37.5866M13.6435 24.5192C13.765 24.5192 13.8875 24.4773 13.9873 24.3934C15.585 23.0311 17.4143 23.0403 17.4256 23.0485C17.7272 23.0577 17.9568 22.8235 17.9619 22.5351C17.9681 22.2477 17.7385 22.0094 17.4482 22.0023C17.3566 21.9941 15.2134 21.9675 13.3007 23.5977C13.0794 23.7869 13.0547 24.1173 13.2431 24.3361C13.3481 24.4568 13.4953 24.5192 13.6435 24.5192M29.9371 23.5977C28.0234 21.9675 25.876 21.992 25.7885 22.0023C25.4993 22.0094 25.2697 22.2477 25.2748 22.5351C25.281 22.8235 25.5332 23.0557 25.8122 23.0485C25.8287 23.0424 27.6528 23.0321 29.2504 24.3934C29.3493 24.4773 29.4718 24.5192 29.5932 24.5192C29.7415 24.5192 29.8897 24.4568 29.9937 24.3361C30.1831 24.1173 30.1573 23.7869 29.9371 23.5977M19.2641 34.9244L22.4954 35.312C22.5171 35.3151 22.5376 35.3161 22.5582 35.3161C22.8218 35.3161 23.0493 35.1208 23.0822 34.8559C23.1162 34.5685 22.9113 34.3087 22.6221 34.274L19.9909 33.9559L20.8165 30.8407C20.8906 30.5615 20.7228 30.2761 20.4418 30.2015C20.1618 30.1268 19.8715 30.2945 19.7973 30.5758L18.8173 34.2719C18.7793 34.4171 18.806 34.5736 18.8915 34.6984C18.9769 34.8242 19.1128 34.906 19.2641 34.9244" fill="black"/></g></g></g></g><g id="Hair 2" transform="translate(107.79 57) scale(1 1)"><g id="Hair 2/Afro"><g id="Group 6"><path id="Hair" fill-rule="evenodd" clip-rule="evenodd" d="M165.164 80.676C166.61 78.336 165.885 75.266 163.544 73.821C163.264 73.648 162.973 73.509 162.676 73.398C162.893 73.224 163.091 73.018 163.246 72.767C163.972 71.592 163.608 70.052 162.433 69.325C161.998 69.058 161.515 68.94 161.04 68.955C161.131 68.852 161.22 68.744 161.295 68.623C162.02 67.447 161.657 65.907 160.482 65.181C160.395 65.128 160.304 65.093 160.214 65.051C160.552 64.852 160.853 64.579 161.074 64.223C161.8 63.048 161.436 61.507 160.261 60.781C159.414 60.258 158.38 60.309 157.595 60.814C157.633 60.769 157.684 60.738 157.715 60.686C158.077 60.101 157.895 59.334 157.311 58.974C157.2 58.905 157.08 58.874 156.96 58.844C157.994 57.815 158.22 56.176 157.411 54.89C156.473 53.399 154.503 52.951 153.013 53.89C152.992 53.904 152.976 53.921 152.956 53.935C152.961 53.931 152.964 53.921 152.969 53.917C153.922 53.318 154.209 52.058 153.609 51.105C153.09 50.281 152.089 49.996 151.21 50.309C151.514 49.907 151.563 49.35 151.279 48.899C150.913 48.317 150.145 48.143 149.563 48.508C148.982 48.874 148.808 49.643 149.174 50.224C149.215 50.289 148.824 50.224 148.143 50.07C148.932 49.041 149.051 47.597 148.32 46.436C147.382 44.946 145.414 44.498 143.923 45.437C142.82 46.13 142.293 47.389 142.471 48.6C142.143 48.51 141.811 48.419 141.476 48.326C142.727 46.718 142.924 44.447 141.775 42.622C140.31 40.294 137.234 39.595 134.905 41.061C134.627 41.236 134.375 41.437 134.144 41.655C134.083 41.382 133.986 41.114 133.829 40.865C133.093 39.697 131.549 39.345 130.38 40.081C129.948 40.353 129.63 40.737 129.435 41.169C129.382 41.041 129.325 40.915 129.248 40.794C128.513 39.625 126.969 39.275 125.8 40.01C125.714 40.064 125.643 40.131 125.565 40.194C125.535 39.802 125.423 39.411 125.2 39.057C124.464 37.888 122.92 37.537 121.751 38.273C121.737 38.281 121.726 38.294 121.712 38.303C121.759 37.778 121.649 37.235 121.347 36.753C120.611 35.585 119.067 35.234 117.898 35.97C117.466 36.241 117.148 36.624 116.953 37.058C116.899 36.93 116.843 36.803 116.766 36.682C116.031 35.514 114.486 35.162 113.318 35.899C112.81 36.218 112.467 36.695 112.29 37.223C111.244 36.578 109.861 36.778 109.057 37.752C108.789 38.076 108.629 38.448 108.549 38.833C108.48 38.761 108.418 38.686 108.34 38.621C107.274 37.742 105.698 37.894 104.82 38.959C104.729 39.07 104.656 39.189 104.587 39.308C104.449 38.854 104.182 38.434 103.788 38.109C102.722 37.23 101.146 37.381 100.268 38.447C100.08 38.674 99.9485 38.928 99.8535 39.19C99.6525 38.945 99.4285 38.713 99.1745 38.503C97.0515 36.753 93.9125 37.055 92.1615 39.177C91.3185 40.199 90.9625 41.458 91.0455 42.684C90.4085 42.241 89.9105 41.891 89.6725 41.696C88.3135 40.574 86.3045 40.768 85.1845 42.126C84.0635 43.486 84.2565 45.494 85.6155 46.615C85.6245 46.623 85.6445 46.634 85.6555 46.642C85.2615 46.59 85.0095 46.525 84.9805 46.439C84.7595 45.788 84.0525 45.44 83.4025 45.661C82.7515 45.882 82.4035 46.589 82.6255 47.239C82.6445 47.297 82.6865 47.338 82.7135 47.391C82.0615 46.723 81.0655 46.443 80.1225 46.763C78.8155 47.208 78.1165 48.628 78.5605 49.936C78.6955 50.333 78.9285 50.665 79.2135 50.936C79.1165 50.956 79.0195 50.97 78.9235 51.002C77.6165 51.447 76.9165 52.867 77.3615 54.175C77.4075 54.31 77.4695 54.435 77.5355 54.556C77.0765 54.435 76.5785 54.442 76.0945 54.606C74.7875 55.05 74.0875 56.471 74.5325 57.779C74.6815 58.215 74.9445 58.575 75.2705 58.857C75.0435 58.855 74.8145 58.892 74.6075 59.02C74.0225 59.381 73.8425 60.148 74.2035 60.733C74.2355 60.784 74.2855 60.815 74.3235 60.861C73.5385 60.356 72.5045 60.305 71.6575 60.828C70.4825 61.554 70.1185 63.094 70.8445 64.27C71.0645 64.626 71.3655 64.899 71.7045 65.098C71.6145 65.14 71.5225 65.175 71.4365 65.228C70.2615 65.953 69.8975 67.494 70.6235 68.669C70.6985 68.791 70.7875 68.899 70.8785 69.002C70.4035 68.987 69.9195 69.105 69.4855 69.372C68.3105 70.099 67.9465 71.639 68.6725 72.814C68.8275 73.065 69.0245 73.27 69.2425 73.445C68.9455 73.556 68.6545 73.694 68.3745 73.867C66.0335 75.313 65.3085 78.383 66.7545 80.723C67.4555 81.86 68.5425 82.606 69.7415 82.917C69.1395 83.347 68.6405 83.702 68.3365 83.89C66.8385 84.816 66.3745 86.78 67.2995 88.279C67.9025 89.254 68.9445 89.781 70.0115 89.782C70.0065 90.419 70.0135 90.938 70.0135 91.133C70.0135 91.82 70.5705 92.377 71.2575 92.377C71.3185 92.377 71.3715 92.351 71.4295 92.342C70.5875 92.744 70.0015 93.597 70.0015 94.593C70.0015 95.974 71.1205 97.093 72.5015 97.093C72.9215 97.093 73.3105 96.98 73.6585 96.797C73.6465 96.895 73.6285 96.991 73.6285 97.093C73.6285 98.474 74.7475 99.594 76.1295 99.594C76.2715 99.594 76.4095 99.574 76.5465 99.551C76.2835 99.947 76.1295 100.421 76.1295 100.931C76.1295 102.312 77.2485 103.432 78.6295 103.432C78.9245 103.432 79.2035 103.371 79.4655 103.278C79.4045 103.589 79.3685 103.909 79.3685 104.238C79.3685 106.99 81.5995 109.22 84.3505 109.22C85.6225 109.22 86.7715 108.729 87.6515 107.944C87.7535 108.575 87.8295 109.125 87.8295 109.491C87.8295 111.253 89.2575 112.681 91.0185 112.681C91.6955 112.681 92.3205 112.466 92.8375 112.106C92.7825 112.313 92.7435 112.526 92.7435 112.749C92.7435 114.13 93.8625 115.249 95.2445 115.249C95.7215 115.249 96.1635 115.109 96.5435 114.876C96.3795 115.69 96.7295 116.543 97.5015 116.948C98.3865 117.413 99.4495 117.099 99.9835 116.277C100.025 116.303 100.05 116.344 100.094 116.367C101.033 116.86 102.193 116.499 102.685 115.561C102.966 115.028 102.945 114.435 102.725 113.921H103.532L104.423 111.141H104.425C96.7755 108.625 91.2205 101.064 91.2205 92.125C91.2205 86.336 93.5645 81.142 97.2835 77.504C97.8935 78.549 99.0155 79.259 100.313 79.259C101.523 79.259 102.589 78.649 103.223 77.719C103.643 78.041 104.163 78.239 104.734 78.239C105.718 78.239 106.56 77.666 106.969 76.84C107.351 77.077 107.797 77.22 108.28 77.22C108.661 77.22 109.018 77.128 109.341 76.977C109.453 78.254 110.513 79.259 111.819 79.259C113.2 79.259 114.319 78.14 114.319 76.759C114.319 76.554 114.412 76.308 114.554 76.041C115.285 77.347 116.664 78.239 118.265 78.239C118.985 78.239 119.652 78.045 120.247 77.731C120.063 78.206 119.953 78.719 119.953 79.259C119.953 80.951 120.945 82.401 122.372 83.091C121.384 83.424 120.667 84.349 120.667 85.45C120.667 86.831 121.786 87.95 123.167 87.95C123.469 87.95 123.754 87.889 124.022 87.791C123.497 88.406 123.167 89.195 123.167 90.067C123.167 90.43 123.238 90.774 123.341 91.104C123.282 91.1 123.226 91.086 123.167 91.086C121.786 91.086 120.667 92.205 120.667 93.586C120.667 94.401 121.061 95.116 121.664 95.572C121.061 96.03 120.667 96.745 120.667 97.559C120.667 98.46 121.147 99.242 121.861 99.683C121.136 99.956 120.615 100.645 120.615 101.466C120.615 102.225 121.065 102.867 121.705 103.179C121.433 103.51 121.248 103.917 121.248 104.379C121.248 104.938 121.495 105.43 121.875 105.78C121.677 105.71 121.471 105.654 121.248 105.654C120.188 105.654 119.329 106.513 119.329 107.572C119.329 108.377 119.827 109.062 120.529 109.347C120.3 109.435 120.1 109.491 119.953 109.491C118.893 109.491 118.033 110.351 118.033 111.41C118.033 112.471 118.893 113.33 119.953 113.33C119.974 113.33 120.003 113.318 120.026 113.314C120.002 113.436 119.953 113.55 119.953 113.679C119.953 114.739 120.812 115.599 121.872 115.599C122.408 115.599 122.891 115.376 123.239 115.022C123.41 115.906 124.152 116.587 125.086 116.587C125.964 116.587 126.672 115.987 126.901 115.183C127.443 115.607 128.116 115.869 128.856 115.869C130.618 115.869 132.045 114.442 132.045 112.681C132.045 112.649 132.037 112.619 132.036 112.588C132.037 112.601 132.045 112.616 132.045 112.628C132.045 113.755 132.958 114.668 134.085 114.668C135.058 114.668 135.833 113.973 136.037 113.063C136.214 113.533 136.66 113.872 137.193 113.872C137.88 113.872 138.437 113.316 138.437 112.628C138.437 112.48 138.535 112.158 138.651 111.79C139.224 112.339 139.997 112.681 140.853 112.681C142.614 112.681 144.042 111.253 144.042 109.491C144.042 109.213 144.181 108.675 144.391 107.999C145.255 108.722 146.353 109.174 147.568 109.174C150.319 109.174 152.55 106.944 152.55 104.192C152.55 103.863 152.514 103.542 152.453 103.231C152.715 103.324 152.994 103.385 153.289 103.385C154.67 103.385 155.789 102.266 155.789 100.885C155.789 100.374 155.635 99.901 155.372 99.505C155.509 99.528 155.646 99.547 155.789 99.547C157.17 99.547 158.289 98.427 158.289 97.046C158.289 96.945 158.272 96.849 158.26 96.75C158.607 96.933 158.997 97.046 159.417 97.046C160.798 97.046 161.917 95.927 161.917 94.546C161.917 93.55 161.331 92.697 160.489 92.295C160.547 92.304 160.6 92.33 160.661 92.33C161.348 92.33 161.905 91.773 161.905 91.086C161.905 90.4 160.441 90.493 160.661 89.842C160.697 89.733 160.724 89.634 160.759 89.527C162.164 90.071 163.798 89.56 164.619 88.233C165.544 86.734 165.08 84.769 163.581 83.844C163.081 83.534 162.53 83.394 161.982 83.381C161.987 83.222 161.983 83.072 161.982 82.919C163.257 82.642 164.424 81.874 165.164 80.676" fill="#4b2500"/><path id="Fill 3" fill-rule="evenodd" clip-rule="evenodd" d="M96.5436 114.364C96.6466 114.364 96.7496 114.394 96.8366 114.455C97.0036 114.572 97.0856 114.777 97.0456 114.977C96.9196 115.602 97.1986 116.211 97.7396 116.495C98.3756 116.83 99.1546 116.614 99.5536 115.997C99.7076 115.762 100.022 115.694 100.258 115.844C100.288 115.863 100.366 115.928 100.392 115.953C100.666 116.088 101.045 116.123 101.405 116.012C101.764 115.9 102.058 115.656 102.232 115.323C102.423 114.961 102.43 114.533 102.254 114.123C102.186 113.965 102.203 113.782 102.297 113.638C102.392 113.495 102.552 113.41 102.724 113.41H103.158L103.783 111.462C95.9406 108.648 90.7086 100.944 90.7086 92.1245C90.7086 86.4655 92.9746 81.0025 96.9256 77.1375C97.0386 77.0295 97.1926 76.9765 97.3516 76.9975C97.5076 77.0175 97.6456 77.1105 97.7256 77.2465C98.2746 78.1855 99.2426 78.7485 100.314 78.7485C101.308 78.7485 102.237 78.2555 102.8 77.4295C102.879 77.3145 103.003 77.2365 103.141 77.2145C103.283 77.1895 103.422 77.2275 103.534 77.3115C104.515 78.0615 105.977 77.6935 106.51 76.6135C106.574 76.4845 106.689 76.3865 106.828 76.3485C106.968 76.3095 107.117 76.3295 107.238 76.4055C107.815 76.7615 108.491 76.8105 109.123 76.5125C109.273 76.4405 109.451 76.4495 109.596 76.5325C109.741 76.6165 109.836 76.7645 109.851 76.9305C109.941 77.9675 110.788 78.7485 111.819 78.7485C112.916 78.7485 113.808 77.8555 113.808 76.7595C113.808 76.4835 113.901 76.1775 114.103 75.8005C114.19 75.6355 114.361 75.5315 114.549 75.5295C114.753 75.5685 114.91 75.6285 115.001 75.7915C115.963 77.5115 118.159 78.2595 120.008 77.2785C120.196 77.1765 120.427 77.2075 120.587 77.3475C120.746 77.4905 120.801 77.7165 120.724 77.9155C120.552 78.3615 120.465 78.8145 120.465 79.2595C120.465 80.7025 121.282 81.9945 122.596 82.6305C122.783 82.7205 122.897 82.9165 122.884 83.1235C122.871 83.3315 122.733 83.5095 122.536 83.5765C121.724 83.8495 121.179 84.6025 121.179 85.4505C121.179 86.7685 122.449 87.8255 123.846 87.3105C124.063 87.2315 124.31 87.3075 124.442 87.4995C124.576 87.6905 124.563 87.9475 124.411 88.1245C123.932 88.6835 123.679 89.3545 123.679 90.0655C123.679 90.3405 123.727 90.6225 123.83 90.9515C123.879 91.1125 123.847 91.2885 123.742 91.4225C123.638 91.5535 123.48 91.6335 123.306 91.6145C123.294 91.6135 123.209 91.6035 123.196 91.6015H123.188C122.066 91.6015 121.179 92.4925 121.179 93.5865C121.179 94.2065 121.468 94.7825 121.973 95.1655C122.101 95.2615 122.175 95.4135 122.175 95.5735C122.175 95.7325 122.101 95.8845 121.973 95.9805C121.468 96.3635 121.179 96.9395 121.179 97.5595C121.179 98.2485 121.534 98.8795 122.129 99.2465C122.296 99.3495 122.389 99.5375 122.371 99.7315C122.352 99.9255 122.225 100.092 122.042 100.161C121.486 100.371 121.127 100.884 121.127 101.467C121.127 101.999 121.434 102.477 121.929 102.717C122.069 102.786 122.171 102.916 122.205 103.068C122.238 103.221 122.2 103.384 122.101 103.505C121.875 103.779 121.76 104.074 121.76 104.38C121.76 104.766 121.924 105.129 122.223 105.405C122.401 105.569 122.44 105.837 122.314 106.045C122.189 106.253 121.936 106.344 121.706 106.262C121.568 106.215 121.406 106.165 121.248 106.165C120.472 106.165 119.841 106.798 119.841 107.573C119.841 108.145 120.187 108.654 120.722 108.872C120.917 108.951 121.043 109.142 121.041 109.352C121.039 109.562 120.909 109.75 120.713 109.825C120.39 109.949 120.155 110.004 119.953 110.004C119.177 110.004 118.545 110.634 118.545 111.411C118.545 112.171 119.151 112.792 119.904 112.816C119.926 112.811 119.948 112.807 119.961 112.805C120.122 112.779 120.288 112.843 120.4 112.966C120.513 113.086 120.561 113.253 120.528 113.415C120.518 113.467 120.504 113.518 120.49 113.569C120.479 113.608 120.465 113.662 120.465 113.678C120.465 114.454 121.096 115.087 121.872 115.087C122.25 115.087 122.606 114.936 122.874 114.662C123.007 114.526 123.205 114.476 123.386 114.532C123.569 114.588 123.705 114.737 123.741 114.925C123.872 115.602 124.426 116.076 125.086 116.076C125.702 116.076 126.233 115.66 126.409 115.042C126.456 114.879 126.581 114.749 126.743 114.696C126.906 114.643 127.084 114.676 127.217 114.78C127.7 115.158 128.267 115.357 128.857 115.357C130.331 115.357 131.531 114.158 131.533 112.683C131.53 112.665 131.527 112.646 131.526 112.632L131.533 112.631V112.629H131.534C131.551 112.37 131.751 112.131 132.011 112.116C132.289 112.089 132.523 112.269 132.545 112.546C132.546 112.554 132.546 112.563 132.546 112.573L132.547 112.572C132.551 112.596 132.557 112.655 132.557 112.679C132.557 112.695 132.557 112.712 132.557 112.726C132.648 113.558 133.298 114.156 134.085 114.156C134.781 114.156 135.378 113.66 135.538 112.951C135.587 112.729 135.775 112.566 136.002 112.551C136.233 112.529 136.437 112.671 136.517 112.883C136.626 113.174 136.891 113.36 137.193 113.36C137.597 113.36 137.926 113.033 137.926 112.629C137.926 112.423 138.002 112.143 138.163 111.634C138.217 111.467 138.353 111.339 138.524 111.295C138.695 111.25 138.877 111.299 139.005 111.421C139.508 111.903 140.165 112.169 140.853 112.169C142.33 112.169 143.53 110.968 143.53 109.492C143.53 109.177 143.642 108.684 143.902 107.847C143.953 107.683 144.082 107.556 144.247 107.509C144.41 107.461 144.588 107.498 144.719 107.606C145.545 108.297 146.531 108.661 147.568 108.661C150.033 108.661 152.038 106.657 152.038 104.192C152.038 103.909 152.009 103.627 151.95 103.329C151.915 103.148 151.979 102.963 152.119 102.842C152.257 102.721 152.45 102.685 152.625 102.749C154.062 103.257 155.277 102.193 155.277 100.884C155.277 100.494 155.163 100.114 154.945 99.7875C154.833 99.6175 154.832 99.3965 154.943 99.2255C155.054 99.0545 155.254 98.9625 155.457 98.9995C155.566 99.0175 155.676 99.0355 155.789 99.0355C156.885 99.0355 157.778 98.1435 157.778 97.0475C157.778 96.9955 157.77 96.9465 157.763 96.8975C157.737 96.7085 157.815 96.4795 157.972 96.3705C158.129 96.2595 158.328 96.2085 158.499 96.2975C159.86 97.0125 161.405 95.9525 161.406 94.5465C161.406 93.7775 160.97 93.0925 160.268 92.7575C160.041 92.6485 159.926 92.3905 159.999 92.1485C160.07 91.9065 160.305 91.7565 160.558 91.7885C160.58 91.7915 160.672 91.8115 160.694 91.8175C161.064 91.8175 161.393 91.4895 161.393 91.0865C161.363 91.0755 161.148 90.9845 161.021 90.9305C160.69 90.7905 159.913 90.4615 160.175 89.6785L160.273 89.3685C160.316 89.2345 160.412 89.1255 160.539 89.0635C160.667 89.0065 160.813 88.9995 160.943 89.0495C162.146 89.5135 163.508 89.0575 164.183 87.9635C164.959 86.7075 164.568 85.0545 163.313 84.2785C162.917 84.0345 162.464 83.9055 161.97 83.8925C161.834 83.8895 161.705 83.8325 161.61 83.7335C161.517 83.6345 161.467 83.5035 161.47 83.3675C161.474 83.2525 161.472 83.1415 161.471 83.0325L161.47 82.9215C161.469 82.6785 161.637 82.4685 161.874 82.4185C163.075 82.1575 164.089 81.4435 164.729 80.4075C166.024 78.3105 165.372 75.5515 163.275 74.2565C163.04 74.1095 162.784 73.9855 162.496 73.8775C162.323 73.8115 162.199 73.6595 162.17 73.4775C162.142 73.2965 162.212 73.1125 162.356 72.9985C162.55 72.8425 162.699 72.6785 162.811 72.4985C163.387 71.5655 163.096 70.3375 162.164 69.7615C161.831 69.5555 161.447 69.4535 161.058 69.4675C160.831 69.4825 160.665 69.3595 160.578 69.1755C160.49 68.9905 160.521 68.7715 160.655 68.6185C160.727 68.5355 160.799 68.4515 160.859 68.3545C161.436 67.4215 161.145 66.1935 160.213 65.6175C160.167 65.5885 160.117 65.5685 160.069 65.5475C159.894 65.4685 159.746 65.2865 159.734 65.0945C159.722 64.9035 159.789 64.7085 159.954 64.6105C160.245 64.4385 160.475 64.2175 160.639 63.9535C160.918 63.5015 161.004 62.9675 160.882 62.4505C160.76 61.9335 160.444 61.4965 159.992 61.2175C159.337 60.8105 158.525 60.8235 157.873 61.2445C157.661 61.3805 157.38 61.3425 157.213 61.1535C157.045 60.9655 157.04 60.6825 157.201 60.4885C157.215 60.4695 157.281 60.4025 157.298 60.3865C157.383 60.2495 157.415 60.0525 157.37 59.8635C157.325 59.6735 157.209 59.5105 157.042 59.4095C156.998 59.3825 156.921 59.3625 156.833 59.3395C156.655 59.2935 156.515 59.1555 156.466 58.9775C156.419 58.8005 156.468 58.6105 156.599 58.4805C157.492 57.5925 157.648 56.2265 156.978 55.1625C156.596 54.5565 156.003 54.1355 155.306 53.9785C154.607 53.8205 153.892 53.9425 153.287 54.3235L153.262 54.3385C153.255 54.3425 153.249 54.3455 153.243 54.3495L153.242 54.3485C153.02 54.4625 152.726 54.4205 152.576 54.2205C152.442 54.0445 152.421 53.8215 152.531 53.6505C152.574 53.5845 152.639 53.5185 152.706 53.4785C153.41 53.0355 153.624 52.0915 153.175 51.3785C152.805 50.7865 152.067 50.5495 151.381 50.7915C151.17 50.8665 150.931 50.7955 150.797 50.6105C150.663 50.4285 150.666 50.1795 150.802 49.9995C150.99 49.7525 151.007 49.4265 150.846 49.1715C150.631 48.8295 150.178 48.7265 149.836 48.9415C149.495 49.1565 149.392 49.6085 149.607 49.9515C149.717 50.1275 149.712 50.3635 149.593 50.5325C149.356 50.8675 149.022 50.7925 148.03 50.5685C147.86 50.5305 147.722 50.4075 147.662 50.2445C147.603 50.0805 147.631 49.8965 147.737 49.7595C148.417 48.8715 148.478 47.6455 147.887 46.7085C147.506 46.1035 146.913 45.6825 146.215 45.5245C145.517 45.3665 144.801 45.4895 144.196 45.8695C143.302 46.4325 142.823 47.4745 142.978 48.5255C143.002 48.6965 142.94 48.8675 142.811 48.9815C142.681 49.0965 142.502 49.1365 142.337 49.0925L141.339 48.8195C141.174 48.7745 141.043 48.6495 140.99 48.4875C140.936 48.3255 140.967 48.1465 141.072 48.0105C142.227 46.5285 142.336 44.4715 141.342 42.8945C140.029 40.8095 137.264 40.1815 135.178 41.4935C134.943 41.6415 134.72 41.8155 134.494 42.0275C134.36 42.1555 134.171 42.2015 133.993 42.1435C133.817 42.0895 133.684 41.9455 133.644 41.7655C133.59 41.5235 133.509 41.3175 133.396 41.1365C132.812 40.2115 131.583 39.9325 130.653 40.5135C130.323 40.7215 130.064 41.0215 129.902 41.3795C129.818 41.5665 129.65 41.6885 129.428 41.6815C129.224 41.6775 129.042 41.5555 128.963 41.3665C128.92 41.2655 128.877 41.1635 128.815 41.0675C128.532 40.6165 128.091 40.3045 127.573 40.1865C127.053 40.0675 126.522 40.1605 126.073 40.4425C126.03 40.4695 125.993 40.5025 125.956 40.5335C125.809 40.6585 125.574 40.7155 125.398 40.6385C125.221 40.5645 125.07 40.4245 125.055 40.2325C125.029 39.8955 124.932 39.5925 124.767 39.3305C124.182 38.4015 122.952 38.1245 122.024 38.7065C121.858 38.8125 121.632 38.8285 121.465 38.7265C121.298 38.6265 121.186 38.4525 121.203 38.2585C121.242 37.8145 121.142 37.3885 120.914 37.0265C120.63 36.5765 120.19 36.2635 119.671 36.1465C119.153 36.0275 118.621 36.1195 118.171 36.4025C117.841 36.6105 117.581 36.9095 117.42 37.2665C117.336 37.4535 117.158 37.6195 116.946 37.5695C116.742 37.5655 116.559 37.4425 116.481 37.2545C116.439 37.1545 116.395 37.0525 116.334 36.9575C116.05 36.5055 115.608 36.1935 115.091 36.0755C114.574 35.9555 114.04 36.0485 113.591 36.3315C113.208 36.5735 112.926 36.9375 112.776 37.3845C112.727 37.5325 112.612 37.6495 112.465 37.7035C112.319 37.7565 112.156 37.7395 112.022 37.6585C111.18 37.1385 110.076 37.3205 109.452 38.0785C109.255 38.3155 109.12 38.6055 109.05 38.9375C109.011 39.1255 108.871 39.2735 108.688 39.3255C108.506 39.3805 108.308 39.3225 108.177 39.1845C108.089 39.0905 108.056 39.0505 108.015 39.0175C107.605 38.6775 107.086 38.5235 106.559 38.5705C106.03 38.6225 105.553 38.8765 105.215 39.2855C105.142 39.3745 105.085 39.4695 105.03 39.5645C104.927 39.7395 104.727 39.8385 104.528 39.8165C104.326 39.7935 104.157 39.6515 104.098 39.4575C103.982 39.0815 103.763 38.7525 103.463 38.5045C103.052 38.1655 102.54 38.0065 102.006 38.0575C101.478 38.1085 101.001 38.3625 100.663 38.7725C100.527 38.9365 100.421 39.1305 100.336 39.3635C100.274 39.5365 100.123 39.6625 99.9416 39.6935C99.7596 39.7255 99.5756 39.6575 99.4596 39.5155C99.2626 39.2765 99.0636 39.0745 98.8486 38.8975C96.9476 37.3315 94.1256 37.6005 92.5566 39.5035C91.8336 40.3805 91.4786 41.4975 91.5566 42.6495C91.5696 42.8455 91.4696 43.0325 91.2986 43.1295C91.1276 43.2275 90.9176 43.2175 90.7536 43.1045C90.0436 42.6115 89.5856 42.2875 89.3466 42.0905C88.7956 41.6345 88.0986 41.4265 87.3886 41.4905C86.6766 41.5595 86.0336 41.9005 85.5786 42.4525C84.6406 43.5915 84.8026 45.2815 85.9416 46.2205C86.1206 46.3635 86.1996 46.6195 86.1096 46.8315C86.0196 47.0425 85.8126 47.1695 85.5896 47.1495C85.0886 47.0845 84.6276 46.9935 84.4966 46.6025C84.4336 46.4175 84.3026 46.2685 84.1266 46.1825C83.9516 46.0945 83.7526 46.0805 83.5676 46.1465C83.3826 46.2095 83.2326 46.3415 83.1466 46.5155C83.0596 46.6905 83.0466 46.8895 83.1096 47.0745C83.1226 47.0925 83.1596 47.1395 83.1696 47.1595C83.2846 47.3845 83.2176 47.6605 83.0116 47.8075C82.8056 47.9535 82.5236 47.9285 82.3466 47.7495C81.8026 47.1925 81.0156 46.9985 80.2876 47.2485C79.7846 47.4195 79.3786 47.7755 79.1446 48.2525C78.9096 48.7275 78.8746 49.2675 79.0456 49.7705C79.1456 50.0635 79.3196 50.3315 79.5656 50.5645C79.7036 50.6955 79.7576 50.8925 79.7066 51.0755C79.6536 51.2595 79.5036 51.3985 79.3176 51.4365C79.1896 51.4625 79.1396 51.4695 79.0896 51.4865C78.5856 51.6585 78.1796 52.0145 77.9446 52.4915C77.7106 52.9675 77.6756 53.5075 77.8466 54.0095C77.8826 54.1175 77.9336 54.2165 77.9856 54.3115C78.0826 54.4925 78.0636 54.7125 77.9376 54.8725C77.8106 55.0335 77.6026 55.0985 77.4046 55.0505C77.0256 54.9515 76.6286 54.9645 76.2596 55.0915C75.7566 55.2615 75.3506 55.6185 75.1156 56.0945C74.8816 56.5705 74.8466 57.1095 75.0166 57.6125C75.1286 57.9405 75.3266 58.2285 75.6056 58.4685C75.7676 58.6085 75.8256 58.8355 75.7496 59.0365C75.6736 59.2375 75.4516 59.3755 75.2666 59.3685C75.1076 59.3805 74.9766 59.3945 74.8756 59.4565C74.5336 59.6685 74.4266 60.1205 74.6386 60.4635C74.8016 60.6575 74.8376 60.9735 74.6696 61.1655C74.5036 61.3545 74.2616 61.4275 74.0466 61.2915C73.3926 60.8695 72.5806 60.8595 71.9276 61.2625C70.9946 61.8405 70.7046 63.0675 71.2796 64.0005C71.4426 64.2645 71.6736 64.4855 71.9646 64.6575C72.1286 64.7545 72.2256 64.9355 72.2156 65.1255C72.2056 65.3165 72.0906 65.4855 71.9166 65.5645C71.7996 65.6165 71.7526 65.6345 71.7076 65.6625C70.7736 66.2405 70.4826 67.4675 71.0596 68.4005C71.1186 68.4955 71.1906 68.5815 71.2636 68.6655C71.3976 68.8185 71.4286 69.0375 71.3406 69.2215C71.2536 69.4055 71.0806 69.5155 70.8606 69.5145C70.4686 69.4865 70.0876 69.6015 69.7546 69.8085C69.3026 70.0875 68.9866 70.5255 68.8646 71.0425C68.7426 71.5585 68.8286 72.0925 69.1076 72.5455C69.2196 72.7255 69.3686 72.8895 69.5636 73.0465C69.7066 73.1615 69.7766 73.3435 69.7486 73.5255C69.7196 73.7085 69.5946 73.8595 69.4216 73.9255C69.1416 74.0285 68.8796 74.1565 68.6436 74.3025C66.5466 75.5975 65.8946 78.3565 67.1896 80.4545C67.7926 81.4295 68.7446 82.1285 69.8706 82.4225C70.0626 82.4715 70.2086 82.6295 70.2446 82.8245C70.2806 83.0195 70.2006 83.2175 70.0386 83.3345C69.4216 83.7735 68.9146 84.1345 68.6066 84.3255C67.3506 85.1005 66.9606 86.7545 67.7356 88.0095C68.2226 88.7985 69.0736 89.2685 70.0136 89.2705C70.1496 89.2705 70.2796 89.3265 70.3766 89.4235C70.4726 89.5195 70.5246 89.6505 70.5236 89.7875C70.5206 90.2475 70.5226 90.6445 70.5246 90.9025L70.5256 91.1335C70.5256 91.5365 70.8546 91.8645 71.2576 91.8645C71.5106 91.8275 71.7966 91.9625 71.8716 92.2045C71.9466 92.4475 71.8796 92.6935 71.6506 92.8035C70.9496 93.1385 70.5136 93.8245 70.5136 94.5925C70.5136 95.6885 71.4056 96.5815 72.5016 96.5815C72.8136 96.5815 73.1226 96.5015 73.4206 96.3435C73.5886 96.2575 73.7926 96.2655 73.9496 96.3765C74.1066 96.4835 74.1906 96.6705 74.1676 96.8585C74.1486 96.9925 74.1406 97.0425 74.1406 97.0925C74.1406 98.1895 75.0326 99.0815 76.1286 99.0815C76.2436 99.0815 76.3526 99.0645 76.4616 99.0465C76.6646 99.0105 76.8656 99.1015 76.9756 99.2725C77.0866 99.4435 77.0856 99.6645 76.9736 99.8345C76.7556 100.163 76.6416 100.541 76.6416 100.93C76.6416 102.241 77.8696 103.307 79.2926 102.797C79.4646 102.734 79.6586 102.769 79.7986 102.888C79.9386 103.009 80.0026 103.194 79.9676 103.375C79.9106 103.673 79.8806 103.963 79.8806 104.239C79.8806 106.704 81.8856 108.71 84.3506 108.71C85.4306 108.71 86.4816 108.302 87.3116 107.562C87.4516 107.438 87.6486 107.4 87.8236 107.463C87.9996 107.524 88.1276 107.677 88.1576 107.861C88.2536 108.455 88.3416 109.065 88.3416 109.492C88.3416 110.968 89.5426 112.169 91.0186 112.169C91.5646 112.169 92.0926 112.002 92.5436 111.686C92.7216 111.565 92.9556 111.565 93.1306 111.687C93.3076 111.81 93.3866 112.031 93.3316 112.239C93.2796 112.433 93.2556 112.594 93.2556 112.749C93.2556 113.845 94.1476 114.738 95.2446 114.738C95.6056 114.738 95.9536 114.637 96.2756 114.439C96.3576 114.388 96.4506 114.364 96.5436 114.364M98.3736 117.677C97.9976 117.677 97.6176 117.589 97.2636 117.402C96.5806 117.044 96.1346 116.393 96.0206 115.656C95.7666 115.725 95.5056 115.762 95.2446 115.762C93.6626 115.762 92.3606 114.536 92.2406 112.983C91.8506 113.122 91.4396 113.192 91.0186 113.192C88.9786 113.192 87.3176 111.532 87.3176 109.491C87.3176 109.325 87.2986 109.11 87.2706 108.873C86.3946 109.432 85.3836 109.733 84.3506 109.733C81.3216 109.733 78.8566 107.267 78.8566 104.238C78.8566 104.137 78.8596 104.035 78.8666 103.932C77.1016 104.095 75.6176 102.672 75.6176 100.931C75.6176 100.641 75.6596 100.355 75.7406 100.081C74.4056 99.9075 73.3426 98.8585 73.1486 97.5305C72.9356 97.5795 72.7206 97.6045 72.5016 97.6045C70.8406 97.6045 69.4896 96.2535 69.4896 94.5925C69.4896 93.8295 69.7716 93.1205 70.2646 92.5795C69.8046 92.2625 69.5016 91.7325 69.5016 91.1335V90.9095C69.4996 90.7435 69.4986 90.5195 69.4986 90.2595C68.4096 90.1095 67.4486 89.4935 66.8646 88.5485C65.7926 86.8115 66.3326 84.5265 68.0676 83.4545C68.2166 83.3625 68.4136 83.2275 68.6476 83.0655C67.6886 82.6165 66.8806 81.9025 66.3186 80.9925C64.7266 78.4155 65.5276 75.0235 68.1056 73.4305C68.1906 73.3785 68.2796 73.3285 68.3696 73.2785C68.3226 73.2155 68.2786 73.1495 68.2376 73.0845C67.8146 72.3975 67.6836 71.5905 67.8676 70.8065C68.0526 70.0245 68.5316 69.3595 69.2166 68.9365C69.4646 68.7845 69.7296 68.6705 70.0046 68.5945C69.4516 67.3685 69.7856 65.9125 70.8126 65.0505C70.6576 64.8945 70.5236 64.7235 70.4096 64.5385C69.5366 63.1255 69.9766 61.2655 71.3886 60.3915C72.0376 59.9905 72.7876 59.8575 73.5086 59.9935C73.5366 59.4355 73.8286 58.8995 74.3386 58.5845C74.3436 58.5815 74.3476 58.5795 74.3526 58.5765C74.2266 58.3785 74.1246 58.1675 74.0476 57.9425C73.7886 57.1805 73.8416 56.3635 74.1976 55.6415C74.5526 54.9205 75.1686 54.3805 75.9306 54.1215C76.2046 54.0285 76.4886 53.9745 76.7746 53.9635C76.6436 53.3135 76.7296 52.6435 77.0266 52.0385C77.3166 51.4495 77.7796 50.9815 78.3546 50.6885C78.2396 50.5035 78.1466 50.3065 78.0766 50.1005C77.8166 49.3395 77.8706 48.5215 78.2256 47.7995C78.5816 47.0775 79.1966 46.5375 79.9586 46.2785C80.6796 46.0335 81.4416 46.0715 82.1116 46.3635C82.1416 46.2615 82.1796 46.1605 82.2286 46.0625C82.4356 45.6425 82.7936 45.3275 83.2376 45.1765C83.5126 45.0845 83.7996 45.0615 84.0776 45.1035C83.7756 43.9845 84.0036 42.7535 84.7896 41.8005C85.4186 41.0375 86.3066 40.5655 87.2906 40.4715C88.2756 40.3735 89.2356 40.6735 89.9986 41.3005C90.1166 41.3975 90.3166 41.5455 90.5566 41.7165C90.6736 40.6655 91.0886 39.6735 91.7666 38.8505C93.6936 36.5145 97.1626 36.1815 99.5006 38.1075C99.5786 38.1735 99.6546 38.2405 99.7306 38.3095C99.7746 38.2455 99.8226 38.1815 99.8726 38.1215C100.385 37.5005 101.108 37.1165 101.909 37.0395C102.711 36.9645 103.493 37.2025 104.114 37.7145C104.337 37.8975 104.532 38.1125 104.691 38.3495C105.174 37.8955 105.791 37.6165 106.461 37.5515C107.113 37.4915 107.756 37.6375 108.307 37.9715C108.405 37.7755 108.523 37.5935 108.662 37.4255C109.485 36.4275 110.855 36.0875 112.037 36.5315C112.279 36.0945 112.621 35.7325 113.045 35.4655C113.726 35.0365 114.531 34.8965 115.317 35.0765C115.975 35.2265 116.549 35.5825 116.971 36.0925C117.16 35.8785 117.38 35.6905 117.625 35.5365C118.306 35.1065 119.111 34.9685 119.898 35.1475C120.683 35.3265 121.351 35.7995 121.78 36.4805C121.981 36.8005 122.118 37.1505 122.185 37.5175C122.697 37.3535 123.23 37.3335 123.752 37.4515C124.536 37.6305 125.205 38.1025 125.633 38.7845C125.749 38.9675 125.843 39.1645 125.914 39.3695C126.503 39.1075 127.159 39.0435 127.8 39.1875C128.457 39.3385 129.032 39.6935 129.453 40.2045C129.643 39.9895 129.862 39.8015 130.107 39.6475C131.516 38.7635 133.377 39.1875 134.262 40.5925C134.304 40.6585 134.343 40.7265 134.379 40.7975C134.463 40.7375 134.547 40.6805 134.633 40.6265C137.197 39.0145 140.594 39.7855 142.209 42.3485C142.81 43.3035 143.084 44.4015 143.037 45.4875C143.221 45.3065 143.427 45.1445 143.651 45.0045C144.487 44.4765 145.48 44.3075 146.442 44.5255C147.406 44.7455 148.227 45.3265 148.753 46.1625C149.118 46.7415 149.304 47.4005 149.314 48.0605C150.129 47.5645 151.2 47.8135 151.712 48.6255C151.915 48.9475 152.003 49.3125 151.977 49.6735C152.807 49.6895 153.585 50.1055 154.042 50.8325C154.446 51.4745 154.528 52.2305 154.33 52.9085C154.729 52.8635 155.133 52.8895 155.533 52.9795C156.497 53.1985 157.317 53.7805 157.844 54.6165C158.645 55.8895 158.593 57.4715 157.768 58.6715C158.067 58.9145 158.276 59.2475 158.366 59.6285C158.392 59.7355 158.407 59.8435 158.412 59.9525C159.136 59.8215 159.892 59.9525 160.53 60.3445C161.943 61.2185 162.382 63.0785 161.51 64.4915C161.395 64.6755 161.26 64.8465 161.107 65.0035C162.134 65.8665 162.468 67.3215 161.914 68.5485C162.19 68.6225 162.455 68.7375 162.702 68.8895C164.115 69.7635 164.555 71.6235 163.682 73.0365C163.64 73.1025 163.596 73.1685 163.549 73.2315C163.639 73.2795 163.727 73.3315 163.813 73.3845C166.39 74.9775 167.191 78.3695 165.6 80.9455C165.009 81.9005 164.162 82.6335 163.153 83.0755C163.396 83.1605 163.629 83.2705 163.85 83.4075C165.587 84.4795 166.127 86.7655 165.054 88.5015C164.371 89.6065 163.18 90.2435 161.94 90.2545C162.197 90.4285 162.417 90.6845 162.417 91.0865C162.417 91.6875 162.112 92.2195 161.649 92.5355C162.141 93.0805 162.429 93.7955 162.429 94.5465C162.429 96.2075 161.078 97.5585 159.417 97.5585C159.199 97.5585 158.983 97.5335 158.77 97.4845C158.576 98.8115 157.513 99.8615 156.179 100.035C156.259 100.308 156.301 100.594 156.301 100.885C156.301 102.625 154.797 104.039 153.053 103.887C153.059 103.989 153.062 104.091 153.062 104.193C153.062 107.221 150.597 109.685 147.568 109.685C146.538 109.685 145.552 109.397 144.679 108.843C144.58 109.218 144.554 109.401 144.554 109.491C144.554 111.532 142.894 113.192 140.853 113.192C140.175 113.192 139.521 113.008 138.949 112.662C138.935 113.611 138.153 114.385 137.193 114.385C136.813 114.385 136.457 114.264 136.166 114.052C135.71 114.743 134.943 115.18 134.085 115.18C133.326 115.18 132.643 114.846 132.175 114.318C131.569 115.54 130.31 116.382 128.857 116.382C128.249 116.382 127.661 116.231 127.126 115.941C126.697 116.654 125.939 117.098 125.086 117.098C124.185 117.098 123.399 116.606 122.989 115.837C122.648 116.015 122.267 116.111 121.872 116.111C120.568 116.111 119.501 115.079 119.443 113.789C118.347 113.554 117.522 112.578 117.522 111.412C117.522 110.287 118.289 109.338 119.328 109.061C119.003 108.644 118.817 108.126 118.817 107.572C118.817 106.36 119.71 105.352 120.871 105.17C120.782 104.919 120.736 104.652 120.736 104.379C120.736 104.017 120.825 103.663 120.995 103.331C120.434 102.877 120.103 102.201 120.103 101.467C120.103 100.732 120.428 100.064 120.971 99.6145C120.451 99.0635 120.155 98.3365 120.155 97.5595C120.155 96.8175 120.425 96.1195 120.912 95.5735C120.425 95.0275 120.155 94.3285 120.155 93.5865C120.155 92.0845 121.26 90.8365 122.699 90.6095C122.67 90.4245 122.655 90.2435 122.655 90.0655C122.655 89.5115 122.775 88.9645 123.001 88.4575C121.417 88.3715 120.155 87.0555 120.155 85.4505C120.155 84.4965 120.609 83.6205 121.345 83.0635C120.152 82.1715 119.441 80.7815 119.441 79.2595C119.441 79.0355 119.458 78.8085 119.492 78.5835C117.795 79.0525 115.965 78.4865 114.795 77.2335C114.567 78.6705 113.319 79.7715 111.819 79.7715C110.472 79.7715 109.332 78.8955 108.953 77.6535C108.357 77.7945 107.73 77.7435 107.161 77.5095C106.318 78.6765 104.63 79.0915 103.34 78.4015C102.578 79.2665 101.479 79.7715 100.314 79.7715C99.1136 79.7715 97.9766 79.2195 97.2166 78.2995C93.7246 81.9425 91.7326 86.9455 91.7326 92.1245C91.7326 100.679 96.8976 108.126 104.585 110.654C104.853 110.742 104.999 111.029 104.913 111.297L104.019 114.078C103.951 114.289 103.754 114.432 103.532 114.432H103.387C103.442 114.905 103.359 115.381 103.139 115.799C102.837 116.374 102.33 116.796 101.709 116.989C101.179 117.157 100.619 117.134 100.11 116.936C99.6446 117.416 99.0156 117.677 98.3736 117.677" fill="black"/></g></g></g><g id="Torso Upper Body" transform="translate(1 41.7684) scale(1 1)"><g id="Torso Upper Body/Phone"><path id="Tshirt" fill-rule="evenodd" clip-rule="evenodd" d="M272.672 195.475L280.789 215.453L326.931 202.159L312.224 180.708C295.402 156.175 267.568 141.511 237.821 141.511H230.602C228.669 145.582 223.884 148.471 218.268 148.49C212.652 148.471 207.867 145.582 205.935 141.511H198.716C168.969 141.511 137.997 155.727 121.175 180.26L107.583 201.503L155.829 217.141L163.864 195.475L160.946 217.287L154.654 254.139H281.882L275.59 217.286L272.672 195.475Z" fill="#EFF2F7"/><path id="Fill 3" fill-rule="evenodd" clip-rule="evenodd" d="M155.262 253.627H281.276L275.086 217.372L272.165 195.543C272.132 195.287 272.292 195.047 272.541 194.981C272.793 194.912 273.05 195.044 273.147 195.282L281.091 214.834L326.109 201.863L311.802 180.999C295.069 156.594 267.413 142.023 237.822 142.023H230.921C228.752 146.255 223.828 148.983 218.27 149.003C212.709 148.983 207.784 146.255 205.617 142.023H198.716C167.916 142.023 137.645 157.147 121.598 180.551L108.371 201.221L155.52 216.504L163.385 195.298C163.475 195.053 163.737 194.918 163.988 194.979C164.242 195.041 164.407 195.284 164.372 195.543L161.454 217.356L155.262 253.627ZM281.883 254.651H154.655C154.504 254.651 154.361 254.584 154.263 254.469C154.166 254.355 154.125 254.202 154.151 254.053L160.442 217.202L162.749 199.957L156.309 217.319C156.214 217.577 155.932 217.711 155.672 217.629L107.425 201.99C107.274 201.941 107.155 201.825 107.101 201.677C107.048 201.526 107.066 201.361 107.152 201.228L120.745 179.985C136.987 156.297 167.588 141 198.716 141H205.935C206.133 141 206.313 141.114 206.398 141.292C208.317 145.336 212.977 147.961 218.27 147.979C223.559 147.961 228.22 145.336 230.14 141.292C230.225 141.114 230.405 141 230.603 141H237.822C267.751 141 295.722 155.736 312.647 180.419L327.354 201.869C327.447 202.005 327.469 202.178 327.414 202.332C327.358 202.487 327.232 202.606 327.074 202.651L280.932 215.946C280.679 216.021 280.414 215.889 280.316 215.647L273.714 199.398L276.098 217.218L282.387 254.053C282.412 254.202 282.371 254.355 282.274 254.469C282.177 254.584 282.033 254.651 281.883 254.651V254.651Z" fill="black"/><path id="Phone" fill-rule="evenodd" clip-rule="evenodd" d="M197.604 217.258L171.064 210.583C168.928 210.045 167.631 207.877 168.168 205.74L182.593 148.394C183.13 146.257 185.298 144.961 187.435 145.498L213.975 152.174C216.111 152.711 217.408 154.879 216.87 157.016L202.446 214.362C201.909 216.499 199.741 217.796 197.604 217.258" fill="#FF5613"/><path id="Fill 8" fill-rule="evenodd" clip-rule="evenodd" d="M186.454 145.888C185.833 145.888 185.222 146.055 184.676 146.382C183.878 146.86 183.314 147.618 183.088 148.519L168.664 205.866C168.197 207.726 169.329 209.618 171.188 210.086L197.728 216.761C198.628 216.988 199.564 216.851 200.361 216.374C201.159 215.897 201.722 215.138 201.949 214.238L216.373 156.891C216.84 155.031 215.708 153.138 213.848 152.67L187.309 145.995C187.026 145.923 186.739 145.888 186.454 145.888M198.584 217.893C198.216 217.893 197.845 217.847 197.478 217.755L170.939 211.08C168.532 210.474 167.066 208.023 167.671 205.616L182.095 148.269C182.389 147.103 183.119 146.121 184.15 145.503C185.182 144.887 186.392 144.709 187.559 145.001L214.098 151.676C216.505 152.283 217.971 154.734 217.366 157.14L202.942 214.488C202.648 215.654 201.918 216.635 200.887 217.253C200.179 217.676 199.388 217.892 198.584 217.893" fill="black"/><path id="Fill 10" fill-rule="evenodd" clip-rule="evenodd" d="M185.806 152.273C185.498 153.499 186.242 154.742 187.467 155.05C188.693 155.359 189.936 154.615 190.244 153.389C190.553 152.164 189.809 150.92 188.583 150.612C187.358 150.303 186.114 151.047 185.806 152.273" fill="#EEF2F8"/><path id="Fill 12" fill-rule="evenodd" clip-rule="evenodd" d="M186.303 152.397C186.187 152.857 186.258 153.335 186.501 153.743C186.745 154.15 187.132 154.438 187.592 154.553C188.053 154.67 188.53 154.599 188.937 154.356C189.345 154.112 189.633 153.725 189.748 153.264C189.864 152.804 189.794 152.327 189.55 151.919C189.306 151.511 188.919 151.224 188.459 151.109C187.508 150.862 186.541 151.449 186.303 152.397M188.032 155.633C187.802 155.633 187.571 155.604 187.343 155.545C186.617 155.364 186.007 154.91 185.622 154.268C185.239 153.626 185.128 152.874 185.31 152.148C185.687 150.65 187.211 149.744 188.709 150.115C189.434 150.297 190.045 150.751 190.428 151.394C190.813 152.036 190.924 152.789 190.741 153.514C190.559 154.239 190.105 154.851 189.463 155.235C189.023 155.498 188.531 155.633 188.032 155.633" fill="black"/><path id="Fill 14" fill-rule="evenodd" clip-rule="evenodd" d="M129.097 194.617C126.621 204.765 126.415 207.607 126.415 207.607L110.808 202.549C110.808 202.549 74.1457 253.775 104.592 272.835C135.037 291.894 158.552 215.656 158.552 215.656C158.552 215.656 163.208 211.648 167.606 206.069C167.628 205.918 167.634 205.767 167.672 205.616L174.35 179.065C173.743 177.821 173.156 177.29 173.156 177.29C173.156 177.29 173.73 177.652 174.594 178.098L177.827 165.244C174.748 163.287 170.197 161.507 163.503 160.211C140.483 155.756 131.572 184.469 129.097 194.617M323.508 203.145L282.426 214.982L285.037 221.102C285.037 221.102 257.562 202.538 249.146 195.359C240.73 188.181 234.79 169.122 230.829 163.181C226.869 157.241 218.453 157.736 216.226 160.273C213.998 162.811 215.73 164.667 215.73 164.667C215.73 164.667 202.117 156.498 197.166 162.438C192.216 168.379 200.879 174.32 200.879 174.32C200.879 174.32 186.77 168.132 184.523 174.815C182.277 181.498 190.731 185.211 190.731 185.211C189.369 184.871 187.99 185.485 186.895 186.251C185.216 187.426 184.058 189.292 183.965 191.34C183.686 197.522 191.935 199.295 194.608 199.706C189.12 199.182 187.76 205.135 187.76 205.135C186.894 213.677 196.671 213.181 196.671 213.181C217.34 211.325 230.087 221.845 230.087 221.845C230.087 221.845 261.523 275.062 300.879 270.112C340.236 265.162 323.508 203.145 323.508 203.145" fill="#dcad7f"/><path id="Fill 16" fill-rule="evenodd" clip-rule="evenodd" d="M192.52 199.286C192.52 199.286 203.62 200.94 209.438 202.88Z" fill="#E5AB78"/><path id="Fill 18" fill-rule="evenodd" clip-rule="evenodd" d="M200.879 174.32C200.879 174.32 211.483 177.265 218.269 182.515Z" fill="#E5AB78"/><path id="Fill 20" fill-rule="evenodd" clip-rule="evenodd" d="M215.73 164.667C215.73 164.667 221.074 167.162 226.084 171.85Z" fill="#E5AB78"/><path id="Fill 22" fill-rule="evenodd" clip-rule="evenodd" d="M319.899 258.359C315.597 264.769 309.175 268.552 300.814 269.604C262.265 274.464 230.839 222.114 230.527 221.585C230.497 221.533 230.458 221.488 230.412 221.45C230.293 221.351 219.286 212.451 201.494 212.451C199.93 212.451 198.311 212.52 196.645 212.671C196.6 212.671 192.116 212.861 189.724 210.34C188.538 209.091 188.048 207.358 188.258 205.25C188.312 205.016 189.545 199.918 194.31 200.181C194.908 200.277 195.302 200.316 195.385 200.324C195.45 200.327 195.512 200.317 195.571 200.3C199.288 200.935 205.462 202.094 209.275 203.366C209.329 203.383 209.384 203.391 209.437 203.391C209.651 203.391 209.851 203.255 209.922 203.042C210.012 202.774 209.867 202.484 209.599 202.394C204.07 200.551 193.716 198.95 192.684 198.793C189.356 197.978 184.267 195.978 184.476 191.363C184.558 189.555 185.572 187.8 187.189 186.67C188.458 185.783 189.607 185.457 190.606 185.708C190.624 185.712 190.641 185.708 190.659 185.711C190.674 185.713 190.688 185.721 190.703 185.721C190.805 185.728 201.037 186.329 213.401 192.828C213.477 192.868 213.558 192.886 213.638 192.886C213.822 192.886 214.001 192.788 214.092 192.613C214.224 192.363 214.128 192.052 213.877 191.921C201.962 185.658 191.948 184.785 190.86 184.707C190.069 184.335 183.041 180.831 185.008 174.977C185.356 173.944 186.024 173.22 187.05 172.766C191.48 170.805 200.581 174.748 200.672 174.789C200.685 174.794 200.698 174.793 200.711 174.797C200.722 174.801 200.73 174.809 200.741 174.813C200.846 174.842 211.329 177.795 217.955 182.921C218.048 182.992 218.158 183.027 218.268 183.027C218.42 183.027 218.572 182.96 218.673 182.829C218.846 182.605 218.805 182.284 218.582 182.11C211.987 177.008 202.066 174.124 201.104 173.852C200.562 173.462 196.682 170.553 196.199 167.044C195.991 165.538 196.449 164.098 197.559 162.767C202.172 157.232 215.335 165.025 215.466 165.105C215.475 165.11 215.484 165.111 215.492 165.115C215.5 165.119 215.505 165.127 215.513 165.13C215.566 165.155 220.846 167.65 225.733 172.223C225.832 172.315 225.958 172.361 226.083 172.361C226.22 172.361 226.356 172.307 226.457 172.199C226.65 171.992 226.64 171.669 226.433 171.475C221.74 167.085 216.837 164.63 216.05 164.252C215.807 163.946 214.901 162.557 216.61 160.611C217.589 159.496 219.908 158.852 222.38 159.019C225.744 159.243 228.668 160.862 230.403 163.464C231.699 165.408 233.228 168.822 234.999 172.774C238.614 180.843 243.114 190.888 248.813 195.749C255.884 201.781 276.59 215.972 282.9 220.269C283.019 220.352 283.164 220.452 283.348 220.574C284.206 221.158 284.714 221.502 284.751 221.526C284.843 221.589 284.95 221.617 285.056 221.613C287.465 222.961 291.368 224.689 295.555 224.689C295.938 224.689 296.324 224.675 296.711 224.644C296.992 224.622 297.203 224.376 297.181 224.094C297.158 223.813 296.919 223.612 296.63 223.625C292.207 223.963 287.877 222.01 285.379 220.598L283.123 215.313L323.141 203.784C324.245 208.223 331.745 240.711 319.899 258.359M323.758 202.7C323.639 202.632 323.498 202.619 323.365 202.654L282.284 214.49C282.143 214.531 282.026 214.63 281.963 214.761C281.9 214.895 281.897 215.047 281.955 215.182L283.878 219.69C283.46 219.417 283.223 219.241 283.211 219.232C283.195 219.22 283.177 219.217 283.161 219.208C276.515 214.68 256.399 200.874 249.478 194.969C243.954 190.258 239.506 180.332 235.933 172.355C234.143 168.361 232.598 164.913 231.255 162.897C229.342 160.027 226.132 158.242 222.448 157.998C219.632 157.806 217.037 158.571 215.84 159.935C214.618 161.328 214.468 162.567 214.638 163.471C210.99 161.541 201.047 156.985 196.772 162.111C195.469 163.674 194.935 165.382 195.185 167.188C195.499 169.459 196.994 171.441 198.332 172.806C195.136 171.726 189.897 170.388 186.637 171.829C185.35 172.398 184.476 173.348 184.038 174.652C182.334 179.721 186.396 183.186 188.84 184.744C188.121 184.928 187.374 185.291 186.602 185.831C184.726 187.142 183.549 189.193 183.453 191.317C183.228 196.304 188 198.581 191.58 199.584C188.23 200.942 187.27 204.983 187.25 205.084C186.998 207.567 187.582 209.574 188.984 211.049C191.704 213.91 196.492 213.703 196.716 213.691C216.167 211.935 228.68 221.39 229.694 222.187C231.069 224.463 259.648 270.945 295.746 270.945C297.46 270.945 299.196 270.839 300.942 270.62C309.611 269.529 316.275 265.596 320.75 258.928C333.678 239.666 324.099 203.377 324.001 203.012C323.965 202.88 323.878 202.767 323.758 202.7Z" fill="black"/><path id="Fill 25" fill-rule="evenodd" clip-rule="evenodd" d="M174.792 178.776C174.837 178.797 174.888 178.821 174.934 178.842L175.189 177.828C174.175 177.325 173.461 176.879 173.433 176.86C173.432 176.86 173.432 176.859 173.431 176.858L167.542 173.098C167.435 173.031 167.313 173.013 167.197 173.03C161.457 168.434 152.526 167.755 152.398 167.747C152.108 167.722 151.873 167.941 151.853 168.223C151.834 168.505 152.047 168.75 152.33 168.769C152.503 168.781 169.747 170.085 170.852 181.393C171.625 189.303 170.86 194.408 168.697 195.767C167.602 196.458 166.063 196.212 164.13 195.037C164.1 195.018 164.065 195.013 164.033 195.003C164.413 191.55 163.448 187.032 161.133 181.466C157.789 173.427 146.041 175.62 145.923 175.642C145.646 175.698 145.465 175.965 145.519 176.244C145.573 176.52 145.841 176.697 146.119 176.648C146.229 176.627 157.165 174.594 160.198 181.883C164.562 192.374 163.973 198.873 158.49 201.183C157.494 201.498 154.666 202.032 153.556 200.748C153.524 200.712 153.484 200.688 153.445 200.663C154.732 196.991 154.899 192.08 154.417 188.719C153.341 181.211 141.745 181.97 141.25 182.005C140.968 182.025 140.756 182.27 140.776 182.552C140.797 182.834 141.05 183.049 141.324 183.026C141.437 183.016 152.463 182.297 153.404 188.865C154.107 193.771 153.272 202.028 149.923 204.124C148.575 204.967 146.89 204.717 144.916 203.381C139.344 199.61 144.558 190.136 144.611 190.04C144.749 189.794 144.661 189.482 144.415 189.343C144.167 189.205 143.856 189.293 143.718 189.54C143.632 189.693 142.858 191.101 142.206 193.036C142.153 192.968 142.089 192.909 142.003 192.875C141.046 192.485 140.966 190.284 141.014 189.545C141.032 189.262 140.818 189.019 140.536 189.001C140.254 189.001 140.011 189.196 139.992 189.477C139.968 189.845 139.809 193.087 141.617 193.822C141.68 193.848 141.746 193.86 141.811 193.86C141.864 193.86 141.909 193.832 141.959 193.816C140.971 197.175 140.591 201.691 144.342 204.229C145.736 205.173 147.03 205.645 148.214 205.645C149.017 205.645 149.769 205.427 150.466 204.992C151.563 204.305 152.405 203.123 153.044 201.678C153.83 202.378 154.93 202.589 155.964 202.589C157.411 202.589 158.723 202.182 158.843 202.143C161.596 200.984 163.263 198.945 163.859 196.055C165.138 196.792 166.296 197.175 167.313 197.175C168.023 197.175 168.667 196.996 169.242 196.633C169.974 196.174 170.564 195.421 171.022 194.395L171.978 190.596C172.273 188.159 172.238 185.055 171.871 181.294C171.658 179.122 170.901 177.299 169.81 175.761L172.837 177.695C172.951 177.806 173.814 178.719 174.454 180.752L174.895 178.997C174.861 178.922 174.827 178.845 174.792 178.776" fill="black"/><path id="Fill 27" fill-rule="evenodd" clip-rule="evenodd" d="M168.168 205.741L168.649 203.828C163.974 210.273 158.306 215.193 158.218 215.268C158.145 215.332 158.09 215.414 158.063 215.506C157.907 216.012 142.213 266.156 120.39 274.273C115.172 276.214 109.947 275.583 104.862 272.401C98.7622 268.582 94.9752 263.136 93.6062 256.213C89.4402 235.141 108.745 206.428 111.01 203.153L125.652 207.898C120.997 228.466 114.961 234.026 114.897 234.085C114.685 234.271 114.665 234.595 114.851 234.806C114.952 234.922 115.093 234.98 115.235 234.98C115.355 234.98 115.475 234.938 115.571 234.853C115.847 234.613 121.941 229.064 126.671 208.044C126.68 208.038 126.691 208.038 126.701 208.032C126.831 207.944 126.914 207.802 126.925 207.645C126.927 207.628 127.016 206.576 127.589 203.663C127.626 203.48 127.662 203.304 127.697 203.119C128.095 201.15 128.693 198.429 129.593 194.738C132.434 183.091 141.421 156.464 163.405 160.715C169.827 161.957 174.799 163.77 178.148 166.063L178.417 164.995C174.975 162.725 170.031 160.954 163.6 159.709C153.505 157.756 144.95 161.772 138.172 171.647C132.772 179.518 129.856 189.342 128.599 194.497C127.494 199.026 126.842 202.094 126.455 204.118C126.265 205.069 126.073 205.999 125.877 206.894L110.966 202.062C110.754 201.993 110.522 202.07 110.391 202.251C110.168 202.563 88.1152 233.712 92.6022 256.41C94.0272 263.621 97.9692 269.294 104.319 273.268C107.654 275.356 111.049 276.402 114.469 276.402C116.555 276.402 118.651 276.012 120.748 275.232C130.129 271.743 139.429 260.668 148.388 242.316C154.659 229.472 158.544 217.383 158.997 215.949C159.788 215.258 164.051 211.457 168.082 206.324C168.101 206.13 168.119 205.936 168.168 205.741" fill="black"/></g></g></g></svg>