<svg xmlns="http://www.w3.org/2000/svg" version="1.1" xmlns:xlink="http://www.w3.org/1999/xlink" xmlns:svgjs="http://svgjs.dev/svgjs" width="1440" height="560" preserveAspectRatio="none" viewBox="0 0 1440 560"><g mask="url(&quot;#SvgjsMask1018&quot;)" fill="none"><path d="M -30.08186723947449,57 C 113.92,138.2 401.92,456 689.9181327605255,463 C 977.92,470 1121.92,92.2 1409.9181327605256,92 C 1697.92,91.8 2123.9,445.6 2129.9181327605256,462 C 2135.93,478.4 1577.98,231.6 1440,174" stroke="rgba(252, 65, 0, 0.12549019607843137)" stroke-width="2"></path><path d="M -941.5650005086883,94 C -797.57,136.8 -509.57,302.2 -221.56500050868826,308 C 66.43,313.8 210.43,110.6 498.4349994913117,123 C 786.43,135.4 1030.12,365.6 1218.4349994913118,370 C 1406.75,374.4 1395.69,190 1440,145" stroke="rgba(252, 65, 0, 0.12549019607843137)" stroke-width="2"></path><path d="M -1349.0002463055293,305 C -1205,256.4 -917,44 -629.0002463055292,62 C -341,80 -197,357.4 90.99975369447077,395 C 379,432.6 541.2,257 810.9997536944708,250 C 1080.8,243 1314.2,338 1440,360" stroke="rgba(252, 65, 0, 0.12549019607843137)" stroke-width="2"></path><path d="M -761.9777213336091,486 C -617.98,434.8 -329.98,225 -41.977721333609104,230 C 246.02,235 390.02,510.8 678.0222786663909,511 C 966.02,511.2 1245.63,236.2 1398.022278666391,231 C 1550.42,225.8 1431.6,434.2 1440,485" stroke="rgba(252, 65, 0, 0.12549019607843137)" stroke-width="2"></path></g><defs><mask id="SvgjsMask1018"><rect width="1440" height="560" fill="#ffffff"></rect></mask></defs></svg>